<svg viewBox="0 0 330 200" xmlns="http://www.w3.org/2000/svg"><g><g><g><g><g><line x1="74.78125" y1="177" x2="69.78125" y2="177" style="visibility: inherit;" fill="rgb(0, 0, 0)" stroke="rgb(204, 204, 204)" stroke-width="1px"></line><line x1="74.78125" y1="162.25" x2="69.78125" y2="162.25" style="visibility: inherit;" fill="rgb(0, 0, 0)" stroke="rgb(204, 204, 204)" stroke-width="1px"></line><line x1="74.78125" y1="147.5" x2="69.78125" y2="147.5" style="visibility: inherit;" fill="rgb(0, 0, 0)" stroke="rgb(204, 204, 204)" stroke-width="1px"></line><line x1="74.78125" y1="132.75" x2="69.78125" y2="132.75" style="visibility: inherit;" fill="rgb(0, 0, 0)" stroke="rgb(204, 204, 204)" stroke-width="1px"></line><line x1="74.78125" y1="118.00000000000001" x2="69.78125" y2="118.00000000000001" style="visibility: inherit;" fill="rgb(0, 0, 0)" stroke="rgb(204, 204, 204)" stroke-width="1px"></line><line x1="74.78125" y1="103.25" x2="69.78125" y2="103.25" style="visibility: inherit;" fill="rgb(0, 0, 0)" stroke="rgb(204, 204, 204)" stroke-width="1px"></line><line x1="74.78125" y1="88.5" x2="69.78125" y2="88.5" style="visibility: inherit;" fill="rgb(0, 0, 0)" stroke="rgb(204, 204, 204)" stroke-width="1px"></line><line x1="74.78125" y1="73.75000000000001" x2="69.78125" y2="73.75000000000001" style="visibility: inherit;" fill="rgb(0, 0, 0)" stroke="rgb(204, 204, 204)" stroke-width="1px"></line><line x1="74.78125" y1="59.00000000000001" x2="69.78125" y2="59.00000000000001" style="visibility: inherit;" fill="rgb(0, 0, 0)" stroke="rgb(204, 204, 204)" stroke-width="1px"></line><line x1="74.78125" y1="44.25" x2="69.78125" y2="44.25" style="visibility: inherit;" fill="rgb(0, 0, 0)" stroke="rgb(204, 204, 204)" stroke-width="1px"></line><line x1="74.78125" y1="29.500000000000014" x2="69.78125" y2="29.500000000000014" style="visibility: inherit;" fill="rgb(0, 0, 0)" stroke="rgb(204, 204, 204)" stroke-width="1px"></line><line x1="74.78125" y1="14.750000000000007" x2="69.78125" y2="14.750000000000007" style="visibility: inherit;" fill="rgb(0, 0, 0)" stroke="rgb(204, 204, 204)" stroke-width="1px"></line><line x1="74.78125" y1="0" x2="69.78125" y2="0" style="visibility: inherit;" fill="rgb(0, 0, 0)" stroke="rgb(204, 204, 204)" stroke-width="1px"></line></g><g transform="translate(64.78125, 0)"><text x="0" y="177" dx="0em" dy="0.3em" style="text-anchor: end; visibility: hidden; font-family: Roboto, sans-serif; font-size: 12px; font-weight: 200;" fill="rgb(50, 49, 63)" stroke="none" stroke-width="1px">-1e-4</text><text x="0" y="162.25" dx="0em" dy="0.3em" style="text-anchor: end; visibility: inherit; font-family: Roboto, sans-serif; font-size: 12px; font-weight: 200;" fill="rgb(50, 49, 63)" stroke="none" stroke-width="1px">0</text><text x="0" y="147.5" dx="0em" dy="0.3em" style="text-anchor: end; visibility: hidden; font-family: Roboto, sans-serif; font-size: 12px; font-weight: 200;" fill="rgb(50, 49, 63)" stroke="none" stroke-width="1px">1e-4</text><text x="0" y="132.75" dx="0em" dy="0.3em" style="text-anchor: end; visibility: inherit; font-family: Roboto, sans-serif; font-size: 12px; font-weight: 200;" fill="rgb(50, 49, 63)" stroke="none" stroke-width="1px">2e-4</text><text x="0" y="118.00000000000001" dx="0em" dy="0.3em" style="text-anchor: end; visibility: hidden; font-family: Roboto, sans-serif; font-size: 12px; font-weight: 200;" fill="rgb(50, 49, 63)" stroke="none" stroke-width="1px">3e-4</text><text x="0" y="103.25" dx="0em" dy="0.3em" style="text-anchor: end; visibility: inherit; font-family: Roboto, sans-serif; font-size: 12px; font-weight: 200;" fill="rgb(50, 49, 63)" stroke="none" stroke-width="1px">4e-4</text><text x="0" y="88.5" dx="0em" dy="0.3em" style="text-anchor: end; visibility: hidden; font-family: Roboto, sans-serif; font-size: 12px; font-weight: 200;" fill="rgb(50, 49, 63)" stroke="none" stroke-width="1px">5e-4</text><text x="0" y="73.75000000000001" dx="0em" dy="0.3em" style="text-anchor: end; visibility: inherit; font-family: Roboto, sans-serif; font-size: 12px; font-weight: 200;" fill="rgb(50, 49, 63)" stroke="none" stroke-width="1px">6e-4</text><text x="0" y="59.00000000000001" dx="0em" dy="0.3em" style="text-anchor: end; visibility: hidden; font-family: Roboto, sans-serif; font-size: 12px; font-weight: 200;" fill="rgb(50, 49, 63)" stroke="none" stroke-width="1px">7e-4</text><text x="0" y="44.25" dx="0em" dy="0.3em" style="text-anchor: end; visibility: inherit; font-family: Roboto, sans-serif; font-size: 12px; font-weight: 200;" fill="rgb(50, 49, 63)" stroke="none" stroke-width="1px">8e-4</text><text x="0" y="29.500000000000014" dx="0em" dy="0.3em" style="text-anchor: end; visibility: hidden; font-family: Roboto, sans-serif; font-size: 12px; font-weight: 200;" fill="rgb(50, 49, 63)" stroke="none" stroke-width="1px">9e-4</text><text x="0" y="14.750000000000007" dx="0em" dy="0.3em" style="text-anchor: end; visibility: inherit; font-family: Roboto, sans-serif; font-size: 12px; font-weight: 200;" fill="rgb(50, 49, 63)" stroke="none" stroke-width="1px">1e-3</text><text x="0" y="0" dx="0em" dy="0.3em" style="text-anchor: end; visibility: hidden; font-family: Roboto, sans-serif; font-size: 12px; font-weight: 200;" fill="rgb(50, 49, 63)" stroke="none" stroke-width="1px">1.1e-3</text></g><line x1="74.78125" y1="0" x2="74.78125" y2="177" fill="rgb(0, 0, 0)" stroke="rgb(204, 204, 204)" stroke-width="1px"></line></g></g><g transform="translate(74, 0)" clip-path="url(#clip_0)"><clipPath id="clip_0"><rect width="255" height="177"></rect></clipPath><g><g><g><line x1="0" y1="0" x2="0" y2="177" fill="rgb(0, 0, 0)" stroke="rgb(60, 60, 60)" stroke-width="1px" opacity="0.25"></line><line x1="31.90234375" y1="0" x2="31.90234375" y2="177" fill="rgb(0, 0, 0)" stroke="rgb(60, 60, 60)" stroke-width="1px" opacity="0.25"></line><line x1="63.8046875" y1="0" x2="63.8046875" y2="177" fill="rgb(0, 0, 0)" stroke="rgb(60, 60, 60)" stroke-width="1px" opacity="0.25"></line><line x1="95.70703125" y1="0" x2="95.70703125" y2="177" fill="rgb(0, 0, 0)" stroke="rgb(60, 60, 60)" stroke-width="1px" opacity="0.25"></line><line x1="127.609375" y1="0" x2="127.609375" y2="177" fill="rgb(0, 0, 0)" stroke="rgb(60, 60, 60)" stroke-width="1px" opacity="0.25"></line><line x1="159.51171875" y1="0" x2="159.51171875" y2="177" fill="rgb(0, 0, 0)" stroke="rgb(60, 60, 60)" stroke-width="1px" opacity="0.25"></line><line x1="191.4140625" y1="0" x2="191.4140625" y2="177" fill="rgb(0, 0, 0)" stroke="rgb(60, 60, 60)" stroke-width="1px" opacity="0.25"></line><line x1="223.31640625" y1="0" x2="223.31640625" y2="177" fill="rgb(0, 0, 0)" stroke="rgb(60, 60, 60)" stroke-width="1px" opacity="0.25"></line><line x1="255.21875" y1="0" x2="255.21875" y2="177" fill="rgb(0, 0, 0)" stroke="rgb(60, 60, 60)" stroke-width="1px" opacity="0.25"></line></g><g><line x1="0" y1="177" x2="255.21875" y2="177" fill="rgb(0, 0, 0)" stroke="rgb(60, 60, 60)" stroke-width="1px" opacity="0.25"></line><line x1="0" y1="162.25" x2="255.21875" y2="162.25" fill="rgb(0, 0, 0)" stroke="rgb(60, 60, 60)" stroke-width="1px" opacity="0.25"></line><line x1="0" y1="147.5" x2="255.21875" y2="147.5" fill="rgb(0, 0, 0)" stroke="rgb(60, 60, 60)" stroke-width="1px" opacity="0.25"></line><line x1="0" y1="132.75" x2="255.21875" y2="132.75" fill="rgb(0, 0, 0)" stroke="rgb(60, 60, 60)" stroke-width="1px" opacity="0.25"></line><line x1="0" y1="118.00000000000001" x2="255.21875" y2="118.00000000000001" fill="rgb(0, 0, 0)" stroke="rgb(60, 60, 60)" stroke-width="1px" opacity="0.25"></line><line x1="0" y1="103.25" x2="255.21875" y2="103.25" fill="rgb(0, 0, 0)" stroke="rgb(60, 60, 60)" stroke-width="1px" opacity="0.25"></line><line x1="0" y1="88.5" x2="255.21875" y2="88.5" fill="rgb(0, 0, 0)" stroke="rgb(60, 60, 60)" stroke-width="1px" opacity="0.25"></line><line x1="0" y1="73.75000000000001" x2="255.21875" y2="73.75000000000001" fill="rgb(0, 0, 0)" stroke="rgb(60, 60, 60)" stroke-width="1px" opacity="0.25"></line><line x1="0" y1="59.00000000000001" x2="255.21875" y2="59.00000000000001" fill="rgb(0, 0, 0)" stroke="rgb(60, 60, 60)" stroke-width="1px" opacity="0.25"></line><line x1="0" y1="44.25" x2="255.21875" y2="44.25" fill="rgb(0, 0, 0)" stroke="rgb(60, 60, 60)" stroke-width="1px" opacity="0.25"></line><line x1="0" y1="29.500000000000014" x2="255.21875" y2="29.500000000000014" fill="rgb(0, 0, 0)" stroke="rgb(60, 60, 60)" stroke-width="1px" opacity="0.25"></line><line x1="0" y1="14.750000000000007" x2="255.21875" y2="14.750000000000007" fill="rgb(0, 0, 0)" stroke="rgb(60, 60, 60)" stroke-width="1px" opacity="0.25"></line><line x1="0" y1="0" x2="255.21875" y2="0" fill="rgb(0, 0, 0)" stroke="rgb(60, 60, 60)" stroke-width="1px" opacity="0.25"></line></g></g></g><g><g><line x1="0" y1="162.25" x2="255.21875" y2="162.25" fill="rgb(0, 0, 0)" stroke="rgb(153, 153, 153)" stroke-width="1.5px"></line></g></g><g><g><line x1="31.90234375" y1="0" x2="31.90234375" y2="177" fill="rgb(0, 0, 0)" stroke="rgb(153, 153, 153)" stroke-width="1.5px"></line></g></g><g><g><g><g><g><path stroke="rgb(0, 153, 136)" stroke-width="2px" d="M31.90234375,14.74999299412594L32.540390625,14.74999299412594L33.1784375,14.74999299412594L33.816484375,14.749992994125979L34.45453125,14.749992994125979L35.092578125,14.74999299412594L35.730625,14.74999299412594L36.368671875,14.74999299412594L37.00671875,14.74999299412594L37.644765625,14.74999299412594L38.2828125,14.74999299412594L38.920859375,14.7499929941259L39.55890625,14.7499929941259L40.196953125,14.74999299412594L40.835,14.74999299412594L41.473046875,14.7499929941259L42.11109375,14.7499929941259L42.749140625,14.74999299412594L43.3871875,14.749992994125979L44.025234375,14.74999299412594L44.66328125,14.74999299412594L45.301328125,14.74999299412594L45.939375,14.74999299412594L46.577421875,14.74999299412594L47.21546875,14.74999299412594L47.853515625,14.74999299412594L48.4915625,14.749992994125979L49.129609375,14.74999299412594L49.76765625,14.74999299412594L50.405703125,14.749992994125979L51.04375,14.74999299412594L51.681796875,32.44999867776631L52.31984375,43.07000118639306L52.957890625,49.44200236700847L53.5959375,53.26520295853586L54.233984375,55.55912327138923L54.87203125,56.93547544395857L55.510078125,57.7612867420488L56.148125,58.25677351894046L56.786171875,58.5540655843689L57.42421875,58.73244082337168L58.062265625,58.83946596668177L58.7003125,58.90368105263487L59.338359375,58.94221010419486L59.97640625,58.96532753512657L60.614453125,58.97919799368406L61.2525,58.987520268818L61.890546875,58.9925136338982L62.52859375,58.995509652946204L63.166640625,58.997307264375L63.8046875,58.99838583123226L64.442734375,58.99903297134661L65.08078125,58.999421255415236L65.718828125,58.99965422585639L66.356875,58.99979400812109L66.994921875,58.99987787747992L67.63296875,58.9999281990952L68.271015625,58.99995839206437L68.9090625,58.99997650784589L69.547109375,58.9999873773148L70.18515625,58.999993898996124L70.823203125,58.99999781200495L71.46125,71.38999834432735L72.099296875,78.82399866372073L72.73734375,83.28439885535674L73.375390625,85.96063897033835L74.0134375,87.56638303932729L74.651484375,88.52982948072065L75.28953125,89.1078973455567L75.927578125,89.45473806445827L76.565625,89.66284249579927L77.203671875,89.78770515460383L77.84171875,89.86262274988658L78.479765625,89.90757330705623L79.1178125,89.93454364135802L79.755859375,89.95072584193909L80.39390625,89.96043516228772L81.031953125,89.96626075449693L81.67,89.96975610982244L82.308046875,89.97185332301774L82.94609375,89.97311165093492L83.584140625,89.97386664768523L84.2221875,89.97431964573539L84.860234375,89.97459144456553L85.49828125,89.97475452386358L86.136328125,89.97485237144241L86.774375,89.97491107998972L87.412421875,89.97494630511811L88.05046875,89.97496744019516L88.688515625,89.97498012124139L89.3265625,89.97498772986913L89.964609375,89.97499229504575L90.60265625,98.64799582386483L91.240703125,103.8517979411563L91.87875,106.97407921153118L92.516796875,108.84744797375612L93.15484375,109.97146923109106L93.792890625,110.64588198549204L94.4309375,111.05052963813264L95.068984375,111.29331822971696L95.70703125,111.43899138466759L96.345078125,111.52639527763795L96.983125,111.57883761342018L97.621171875,111.6103030148895L98.25921875,111.62918225577111L98.897265625,111.64050980030007L99.5353125,111.64730632701745L100.173359375,111.65138424304787L100.81140625,111.65383099266613L101.449453125,111.65529904243708L102.0875,111.65617987229965L102.725546875,111.6567083702172L103.36359375,111.65702546896772L104.001640625,111.65721572821802L104.6396875,111.65732988376821L105.277734375,111.65739837709833L105.91578125,111.6574394730964L106.553828125,111.65746413069523L107.191875,111.65747892525454L107.829921875,111.65748780199011L108.46796875,111.65749312803146L109.106015625,111.65749632365629L109.7440625,111.65749824103118L110.382109375,117.72859925740488L111.02015625,121.37125986722911L111.658203125,123.55685623312365L112.29625,124.86821405266036L112.934296875,125.6550287443824L113.57234375,126.12711755941562L114.210390625,126.41037084843553L114.8484375,126.5803228218475L115.486484375,126.68229400589468L116.12453125,126.74347671632299L116.762578125,126.78018634257998L117.400625,126.80221211833417L118.038671875,126.81542758378667L118.67671875,126.82335686305818L119.314765625,126.82811443062108L119.9528125,126.83096897115884L120.590859375,126.83268169548147L121.22890625,126.83370933007505L121.866953125,126.83432591083123L122.505,126.8346958592849L123.143046875,126.83491782835713L123.78109375,126.83505100980047L124.419140625,126.83513091866645L125.0571875,126.83517886398604L125.695234375,126.83520763117781L126.33328125,126.83522489149287L126.971328125,126.8352352476819L127.609375,126.83524146139531L128.247421875,126.83524518962338L128.88546875,126.8352474265602L129.523515625,131.08501884659904L130.1615625,133.63488169862237L130.799609375,135.16479940983635L131.43765625,136.08275003656473L132.075703125,136.63352041260177L132.71375,136.96398263822397L133.351796875,137.16225997359732L133.98984375,137.28122637482133L134.627890625,137.35260621555574L135.2659375,137.39543411999637L135.903984375,137.42113086266073L136.54203125,137.43654890825937L137.180078125,137.44579973561855L137.818125,137.45135023203406L138.456171875,137.45468052988335L139.09421875,137.45667870859293L139.732265625,137.4578776158187L140.3703125,137.45859696015415L141.008359375,137.45902856675542L141.64640625,137.45928753071618L142.284453125,137.45944290909264L142.9225,137.45953613611852L143.560546875,137.45959207233403L144.19859375,137.45962563406334L144.836640625,137.45964577110092L145.4746875,137.45965785332348L146.112734375,137.45966510265703L146.75078125,137.45966945225715L147.388828125,137.4596720620172L148.026875,137.45967362787326L148.664921875,137.45967456738686L149.30296875,140.43451392803988L149.941015625,142.21941754443168L150.5790625,143.29035971426674L151.217109375,143.93292501616781L151.85515625,144.31846419730843L152.493203125,144.5497877059928L153.13125,144.68858181120342L153.769296875,144.7718582743298L154.40734375,144.82182415220564L155.045390625,144.85180367893113L155.6834375,144.86979139496643L156.321484375,144.88058402458762L156.95953125,144.8870596023603L157.597578125,144.89094494902395L158.235625,144.89327615702211L158.873671875,144.894674881821L159.51171875,144.89551411670035L160.149765625,144.89601765762797L160.7878125,144.89631978218452L161.425859375,144.89650105691845L162.06390625,144.89660982175883L162.701953125,144.89667508066304L163.34,144.89671423600558L163.978046875,144.89673772921108L164.61609375,144.8967518251344L165.254140625,144.89676028268838L165.8921875,144.89676535722077L166.530234375,144.89676840194022L167.16828125,144.89677022877186L167.806328125,144.89677132487088L168.444375,146.9791590116072L169.082421875,148.22859162364898L169.72046875,148.97825119087406L170.358515625,149.42804693120914L170.9965625,149.69792437541014L171.634609375,149.85985084193078L172.27265625,149.95700672184313L172.910703125,150.01530024979056L173.54875,150.050276366559L174.186796875,150.07126203662008L174.82484375,150.08385343865672L175.462890625,150.0914082798787L176.1009375,150.0959411846119L176.738984375,150.09866092745182L177.37703125,150.10029277315576L178.015078125,150.10127188057814L178.653125,150.10185934503153L179.291171875,150.1022118237036L179.92921875,150.10242331090683L180.567265625,150.10255020322876L181.2053125,150.10262633862195L181.843359375,150.10267201985783L182.48140625,150.10269942859938L183.119453125,150.10271587384432L183.7575,150.10272574099125L184.395546875,150.10273166127942L185.03359375,150.10273521345232L185.671640625,150.10273734475606L186.3096875,150.10273862353833L186.947734375,150.10273939080767L187.58578125,150.10273985116928L188.223828125,151.56041139116527L188.861875,152.43501431516287L189.499921875,152.95977606956146L190.13796875,153.2746331222006L190.776015625,153.46354735378407L191.4140625,153.57689589273417L192.052109375,153.64490501610422L192.69015625,153.68571049012624L193.328203125,153.71019377453948L193.96625,153.7248837451874L194.604296875,153.73369772757616L195.24234375,153.7389861170094L195.880390625,153.74215915066938L196.5184375,153.74406297086534L197.156484375,153.74520526298292L197.79453125,153.74589063825348L198.432578125,153.7463018634158L199.070625,153.7465485985132L199.708671875,153.74669663957164L200.34671875,153.7467854642067L200.984765625,153.74683875898774L201.6228125,153.74687073585636L202.260859375,153.74688992197756L202.89890625,153.74690143365027L203.536953125,153.74690834065387L204.175,153.74691248485604L204.813046875,153.74691497137735L205.45109375,153.74691646329015L206.089140625,153.7469173584378L206.7271875,153.7469178955264L207.365234375,153.74691821777955L208.00328125,154.7672881240642L208.641328125,155.37951006783499L209.279375,155.74684323409744L209.917421875,155.9672431338549L210.55546875,156.0994830737094L211.193515625,156.1788270376221L211.8315625,156.22643341596972L212.469609375,156.25499724297828L213.10765625,156.27213553918344L213.745703125,156.28241851690652L214.38375,156.28858830354034L215.021796875,156.2922901755207L215.65984375,156.29451129870884L216.297890625,156.29584397262178L216.9359375,156.2966435769695L217.573984375,156.29712333957818L218.21203125,156.29741119714336L218.850078125,156.29758391168247L219.488125,156.29768754040592L220.126171875,156.29774971764002L220.76421875,156.29778702398048L221.402265625,156.29780940778474L222.0403125,156.2978228380673L222.678359375,156.29783089623683L223.31640625,156.29783573113855L223.954453125,156.2978386320796L224.5925,156.2978403726442L225.230546875,156.29784141698298L225.86859375,156.29784204358626L226.506640625,156.2978424195482L227.1446875,157.01210148710646L227.782734375,157.44065692764138L228.42078125,157.69779019196235L229.058828125,157.85207015055494L229.696875,157.94463812571047L230.334921875,158.0001789108038L230.97296875,158.0335033818598L231.611015625,158.0534980644934L232.2490625,158.06549487407355L232.887109375,158.07269295982167L233.52515625,158.07701181127052L234.163203125,158.07960312213982L234.80125,158.08115790866142L235.439296875,158.08209078057436L236.07734375,158.08265050372214L236.715390625,158.0829863376108L237.3534375,158.083187837944L237.991484375,158.08330873814393L238.62953125,158.0833812782639L239.267578125,158.08342480233586L239.905625,158.08345091677901L240.543671875,158.08346658544494L241.18171875,158.0834759866445L241.819765625,158.08348162736422L242.4578125,158.08348501179606L243.095859375,158.08348704245515L243.73390625,158.0834882608506L244.371953125,158.0834889918879L245.01,158.08348943051024L245.648046875,158.08348969368367L246.28609375,158.08348985158773L246.924140625,158.5834711035208" style="fill: none;" fill="none"></path></g></g></g></g><g opacity="0.2"><g><g><g><path stroke="rgb(0, 153, 136)" stroke-width="2px" d="M31.90234375,14.74999299412594L32.540390625,14.74999299412594L33.1784375,14.74999299412594L33.816484375,14.74999299412594L34.45453125,14.74999299412594L35.092578125,14.74999299412594L35.730625,14.74999299412594L36.368671875,14.74999299412594L37.00671875,14.74999299412594L37.644765625,14.74999299412594L38.2828125,14.74999299412594L38.920859375,14.74999299412594L39.55890625,14.74999299412594L40.196953125,14.74999299412594L40.835,14.74999299412594L41.473046875,14.74999299412594L42.11109375,14.74999299412594L42.749140625,14.74999299412594L43.3871875,14.74999299412594L44.025234375,14.74999299412594L44.66328125,14.74999299412594L45.301328125,14.74999299412594L45.939375,14.74999299412594L46.577421875,14.74999299412594L47.21546875,14.74999299412594L47.853515625,14.74999299412594L48.4915625,14.74999299412594L49.129609375,14.74999299412594L49.76765625,14.74999299412594L50.405703125,14.74999299412594L51.04375,14.74999299412594L51.681796875,59.00000368151815L52.31984375,59.00000368151815L52.957890625,59.00000368151815L53.5959375,59.00000368151815L54.233984375,59.00000368151815L54.87203125,59.00000368151815L55.510078125,59.00000368151815L56.148125,59.00000368151815L56.786171875,59.00000368151815L57.42421875,59.00000368151815L58.062265625,59.00000368151815L58.7003125,59.00000368151815L59.338359375,59.00000368151815L59.97640625,59.00000368151815L60.614453125,59.00000368151815L61.2525,59.00000368151815L61.890546875,59.00000368151815L62.52859375,59.00000368151815L63.166640625,59.00000368151815L63.8046875,59.00000368151815L64.442734375,59.00000368151815L65.08078125,59.00000368151815L65.718828125,59.00000368151815L66.356875,59.00000368151815L66.994921875,59.00000368151815L67.63296875,59.00000368151815L68.271015625,59.00000368151815L68.9090625,59.00000368151815L69.547109375,59.00000368151815L70.18515625,59.00000368151815L70.823203125,59.00000368151815L71.46125,89.97499914281069L72.099296875,89.97499914281069L72.73734375,89.97499914281069L73.375390625,89.97499914281069L74.0134375,89.97499914281069L74.651484375,89.97499914281069L75.28953125,89.97499914281069L75.927578125,89.97499914281069L76.565625,89.97499914281069L77.203671875,89.97499914281069L77.84171875,89.97499914281069L78.479765625,89.97499914281069L79.1178125,89.97499914281069L79.755859375,89.97499914281069L80.39390625,89.97499914281069L81.031953125,89.97499914281069L81.67,89.97499914281069L82.308046875,89.97499914281069L82.94609375,89.97499914281069L83.584140625,89.97499914281069L84.2221875,89.97499914281069L84.860234375,89.97499914281069L85.49828125,89.97499914281069L86.136328125,89.97499914281069L86.774375,89.97499914281069L87.412421875,89.97499914281069L88.05046875,89.97499914281069L88.688515625,89.97499914281069L89.3265625,89.97499914281069L89.964609375,89.97499914281069L90.60265625,111.65750111709349L91.240703125,111.65750111709349L91.87875,111.65750111709349L92.516796875,111.65750111709349L93.15484375,111.65750111709349L93.792890625,111.65750111709349L94.4309375,111.65750111709349L95.068984375,111.65750111709349L95.70703125,111.65750111709349L96.345078125,111.65750111709349L96.983125,111.65750111709349L97.621171875,111.65750111709349L98.25921875,111.65750111709349L98.897265625,111.65750111709349L99.5353125,111.65750111709349L100.173359375,111.65750111709349L100.81140625,111.65750111709349L101.449453125,111.65750111709349L102.0875,111.65750111709349L102.725546875,111.65750111709349L103.36359375,111.65750111709349L104.001640625,111.65750111709349L104.6396875,111.65750111709349L105.277734375,111.65750111709349L105.91578125,111.65750111709349L106.553828125,111.65750111709349L107.191875,111.65750111709349L107.829921875,111.65750111709349L108.46796875,111.65750111709349L109.106015625,111.65750111709349L109.7440625,111.65750111709349L110.382109375,126.83525078196544L111.02015625,126.83525078196544L111.658203125,126.83525078196544L112.29625,126.83525078196544L112.934296875,126.83525078196544L113.57234375,126.83525078196544L114.210390625,126.83525078196544L114.8484375,126.83525078196544L115.486484375,126.83525078196544L116.12453125,126.83525078196544L116.762578125,126.83525078196544L117.400625,126.83525078196544L118.038671875,126.83525078196544L118.67671875,126.83525078196544L119.314765625,126.83525078196544L119.9528125,126.83525078196544L120.590859375,126.83525078196544L121.22890625,126.83525078196544L121.866953125,126.83525078196544L122.505,126.83525078196544L123.143046875,126.83525078196544L123.78109375,126.83525078196544L124.419140625,126.83525078196544L125.0571875,126.83525078196544L125.695234375,126.83525078196544L126.33328125,126.83525078196544L126.971328125,126.83525078196544L127.609375,126.83525078196544L128.247421875,126.83525078196544L128.88546875,126.83525078196544L129.523515625,137.4596759766573L130.1615625,137.4596759766573L130.799609375,137.4596759766573L131.43765625,137.4596759766573L132.075703125,137.4596759766573L132.71375,137.4596759766573L133.351796875,137.4596759766573L133.98984375,137.4596759766573L134.627890625,137.4596759766573L135.2659375,137.4596759766573L135.903984375,137.4596759766573L136.54203125,137.4596759766573L137.180078125,137.4596759766573L137.818125,137.4596759766573L138.456171875,137.4596759766573L139.09421875,137.4596759766573L139.732265625,137.4596759766573L140.3703125,137.4596759766573L141.008359375,137.4596759766573L141.64640625,137.4596759766573L142.284453125,137.4596759766573L142.9225,137.4596759766573L143.560546875,137.4596759766573L144.19859375,137.4596759766573L144.836640625,137.4596759766573L145.4746875,137.4596759766573L146.112734375,137.4596759766573L146.75078125,137.4596759766573L147.388828125,137.4596759766573L148.026875,137.4596759766573L148.664921875,137.4596759766573L149.30296875,144.89677296901937L149.941015625,144.89677296901937L150.5790625,144.89677296901937L151.217109375,144.89677296901937L151.85515625,144.89677296901937L152.493203125,144.89677296901937L153.13125,144.89677296901937L153.769296875,144.89677296901937L154.40734375,144.89677296901937L155.045390625,144.89677296901937L155.6834375,144.89677296901937L156.321484375,144.89677296901937L156.95953125,144.89677296901937L157.597578125,144.89677296901937L158.235625,144.89677296901937L158.873671875,144.89677296901937L159.51171875,144.89677296901937L160.149765625,144.89677296901937L160.7878125,144.89677296901937L161.425859375,144.89677296901937L162.06390625,144.89677296901937L162.701953125,144.89677296901937L163.34,144.89677296901937L163.978046875,144.89677296901937L164.61609375,144.89677296901937L165.254140625,144.89677296901937L165.8921875,144.89677296901937L166.530234375,144.89677296901937L167.16828125,144.89677296901937L167.806328125,144.89677296901937L168.444375,150.10274054171168L169.082421875,150.10274054171168L169.72046875,150.10274054171168L170.358515625,150.10274054171168L170.9965625,150.10274054171168L171.634609375,150.10274054171168L172.27265625,150.10274054171168L172.910703125,150.10274054171168L173.54875,150.10274054171168L174.186796875,150.10274054171168L174.82484375,150.10274054171168L175.462890625,150.10274054171168L176.1009375,150.10274054171168L176.738984375,150.10274054171168L177.37703125,150.10274054171168L178.015078125,150.10274054171168L178.653125,150.10274054171168L179.291171875,150.10274054171168L179.92921875,150.10274054171168L180.567265625,150.10274054171168L181.2053125,150.10274054171168L181.843359375,150.10274054171168L182.48140625,150.10274054171168L183.119453125,150.10274054171168L183.7575,150.10274054171168L184.395546875,150.10274054171168L185.03359375,150.10274054171168L185.671640625,150.10274054171168L186.3096875,150.10274054171168L186.947734375,150.10274054171168L187.58578125,150.10274054171168L188.223828125,153.7469187011593L188.861875,153.7469187011593L189.499921875,153.7469187011593L190.13796875,153.7469187011593L190.776015625,153.7469187011593L191.4140625,153.7469187011593L192.052109375,153.7469187011593L192.69015625,153.7469187011593L193.328203125,153.7469187011593L193.96625,153.7469187011593L194.604296875,153.7469187011593L195.24234375,153.7469187011593L195.880390625,153.7469187011593L196.5184375,153.7469187011593L197.156484375,153.7469187011593L197.79453125,153.7469187011593L198.432578125,153.7469187011593L199.070625,153.7469187011593L199.708671875,153.7469187011593L200.34671875,153.7469187011593L200.984765625,153.7469187011593L201.6228125,153.7469187011593L202.260859375,153.7469187011593L202.89890625,153.7469187011593L203.536953125,153.7469187011593L204.175,153.7469187011593L204.813046875,153.7469187011593L205.45109375,153.7469187011593L206.089140625,153.7469187011593L206.7271875,153.7469187011593L207.365234375,153.7469187011593L208.00328125,156.29784298349114L208.641328125,156.29784298349114L209.279375,156.29784298349114L209.917421875,156.29784298349114L210.55546875,156.29784298349114L211.193515625,156.29784298349114L211.8315625,156.29784298349114L212.469609375,156.29784298349114L213.10765625,156.29784298349114L213.745703125,156.29784298349114L214.38375,156.29784298349114L215.021796875,156.29784298349114L215.65984375,156.29784298349114L216.297890625,156.29784298349114L216.9359375,156.29784298349114L217.573984375,156.29784298349114L218.21203125,156.29784298349114L218.850078125,156.29784298349114L219.488125,156.29784298349114L220.126171875,156.29784298349114L220.76421875,156.29784298349114L221.402265625,156.29784298349114L222.0403125,156.29784298349114L222.678359375,156.29784298349114L223.31640625,156.29784298349114L223.954453125,156.29784298349114L224.5925,156.29784298349114L225.230546875,156.29784298349114L225.86859375,156.29784298349114L226.506640625,156.29784298349114L227.1446875,158.0834900884438L227.782734375,158.0834900884438L228.42078125,158.0834900884438L229.058828125,158.0834900884438L229.696875,158.0834900884438L230.334921875,158.0834900884438L230.97296875,158.0834900884438L231.611015625,158.0834900884438L232.2490625,158.0834900884438L232.887109375,158.0834900884438L233.52515625,158.0834900884438L234.163203125,158.0834900884438L234.80125,158.0834900884438L235.439296875,158.0834900884438L236.07734375,158.0834900884438L236.715390625,158.0834900884438L237.3534375,158.0834900884438L237.991484375,158.0834900884438L238.62953125,158.0834900884438L239.267578125,158.0834900884438L239.905625,158.0834900884438L240.543671875,158.0834900884438L241.18171875,158.0834900884438L241.819765625,158.0834900884438L242.4578125,158.0834900884438L243.095859375,158.0834900884438L243.73390625,158.0834900884438L244.371953125,158.0834900884438L245.01,158.0834900884438L245.648046875,158.0834900884438L246.28609375,158.0834900884438L246.924140625,159.33344298142038" style="fill: none;" fill="none"></path></g></g></g></g></g></g><g transform="translate(74, 177)" clip-path="url(#clip_1)"><clipPath id="clip_1"><rect width="255" height="23"></rect></clipPath><g><g><line x1="0" y1="0" x2="0" y2="5" style="visibility: inherit;" fill="rgb(0, 0, 0)" stroke="rgb(204, 204, 204)" stroke-width="1px"></line><line x1="31.90234375" y1="0" x2="31.90234375" y2="5" style="visibility: inherit;" fill="rgb(0, 0, 0)" stroke="rgb(204, 204, 204)" stroke-width="1px"></line><line x1="63.8046875" y1="0" x2="63.8046875" y2="5" style="visibility: inherit;" fill="rgb(0, 0, 0)" stroke="rgb(204, 204, 204)" stroke-width="1px"></line><line x1="95.70703125" y1="0" x2="95.70703125" y2="5" style="visibility: inherit;" fill="rgb(0, 0, 0)" stroke="rgb(204, 204, 204)" stroke-width="1px"></line><line x1="127.609375" y1="0" x2="127.609375" y2="5" style="visibility: inherit;" fill="rgb(0, 0, 0)" stroke="rgb(204, 204, 204)" stroke-width="1px"></line><line x1="159.51171875" y1="0" x2="159.51171875" y2="5" style="visibility: inherit;" fill="rgb(0, 0, 0)" stroke="rgb(204, 204, 204)" stroke-width="1px"></line><line x1="191.4140625" y1="0" x2="191.4140625" y2="5" style="visibility: inherit;" fill="rgb(0, 0, 0)" stroke="rgb(204, 204, 204)" stroke-width="1px"></line><line x1="223.31640625" y1="0" x2="223.31640625" y2="5" style="visibility: inherit;" fill="rgb(0, 0, 0)" stroke="rgb(204, 204, 204)" stroke-width="1px"></line><line x1="255.21875" y1="0" x2="255.21875" y2="5" style="visibility: inherit;" fill="rgb(0, 0, 0)" stroke="rgb(204, 204, 204)" stroke-width="1px"></line></g><g transform="translate(0, 8)"><text x="0" y="0" dx="0em" dy="0.95em" style="text-anchor: middle; visibility: hidden; font-family: Roboto, sans-serif; font-size: 12px; font-weight: 200;" fill="rgb(50, 49, 63)" stroke="none" stroke-width="1px">-50</text><text x="31.90234375" y="0" dx="0em" dy="0.95em" style="text-anchor: middle; visibility: inherit; font-family: Roboto, sans-serif; font-size: 12px; font-weight: 200;" fill="rgb(50, 49, 63)" stroke="none" stroke-width="1px">0</text><text x="63.8046875" y="0" dx="0em" dy="0.95em" style="text-anchor: middle; visibility: inherit; font-family: Roboto, sans-serif; font-size: 12px; font-weight: 200;" fill="rgb(50, 49, 63)" stroke="none" stroke-width="1px">50</text><text x="95.70703125" y="0" dx="0em" dy="0.95em" style="text-anchor: middle; visibility: inherit; font-family: Roboto, sans-serif; font-size: 12px; font-weight: 200;" fill="rgb(50, 49, 63)" stroke="none" stroke-width="1px">100</text><text x="127.609375" y="0" dx="0em" dy="0.95em" style="text-anchor: middle; visibility: inherit; font-family: Roboto, sans-serif; font-size: 12px; font-weight: 200;" fill="rgb(50, 49, 63)" stroke="none" stroke-width="1px">150</text><text x="159.51171875" y="0" dx="0em" dy="0.95em" style="text-anchor: middle; visibility: inherit; font-family: Roboto, sans-serif; font-size: 12px; font-weight: 200;" fill="rgb(50, 49, 63)" stroke="none" stroke-width="1px">200</text><text x="191.4140625" y="0" dx="0em" dy="0.95em" style="text-anchor: middle; visibility: inherit; font-family: Roboto, sans-serif; font-size: 12px; font-weight: 200;" fill="rgb(50, 49, 63)" stroke="none" stroke-width="1px">250</text><text x="223.31640625" y="0" dx="0em" dy="0.95em" style="text-anchor: middle; visibility: inherit; font-family: Roboto, sans-serif; font-size: 12px; font-weight: 200;" fill="rgb(50, 49, 63)" stroke="none" stroke-width="1px">300</text><text x="255.21875" y="0" dx="0em" dy="0.95em" style="text-anchor: middle; visibility: hidden; font-family: Roboto, sans-serif; font-size: 12px; font-weight: 200;" fill="rgb(50, 49, 63)" stroke="none" stroke-width="1px">350</text></g><line x1="0" y1="0" x2="255.21875" y2="0" fill="rgb(0, 0, 0)" stroke="rgb(204, 204, 204)" stroke-width="1px"></line></g></g></g></g></svg>