<svg viewBox="0 0 736 400" xmlns="http://www.w3.org/2000/svg"><g><g><g><g><g><line x1="42.390625" y1="358.9958719244834" x2="37.390625" y2="358.9958719244834" style="visibility: inherit;" fill="rgb(0, 0, 0)" stroke="rgb(204, 204, 204)" stroke-width="1px"></line><line x1="42.390625" y1="325.33859040133865" x2="37.390625" y2="325.33859040133865" style="visibility: inherit;" fill="rgb(0, 0, 0)" stroke="rgb(204, 204, 204)" stroke-width="1px"></line><line x1="42.390625" y1="291.6813088781939" x2="37.390625" y2="291.6813088781939" style="visibility: inherit;" fill="rgb(0, 0, 0)" stroke="rgb(204, 204, 204)" stroke-width="1px"></line><line x1="42.390625" y1="258.02402735504904" x2="37.390625" y2="258.02402735504904" style="visibility: inherit;" fill="rgb(0, 0, 0)" stroke="rgb(204, 204, 204)" stroke-width="1px"></line><line x1="42.390625" y1="224.36674583190427" x2="37.390625" y2="224.36674583190427" style="visibility: inherit;" fill="rgb(0, 0, 0)" stroke="rgb(204, 204, 204)" stroke-width="1px"></line><line x1="42.390625" y1="190.7094643087595" x2="37.390625" y2="190.7094643087595" style="visibility: inherit;" fill="rgb(0, 0, 0)" stroke="rgb(204, 204, 204)" stroke-width="1px"></line><line x1="42.390625" y1="157.0521827856147" x2="37.390625" y2="157.0521827856147" style="visibility: inherit;" fill="rgb(0, 0, 0)" stroke="rgb(204, 204, 204)" stroke-width="1px"></line><line x1="42.390625" y1="123.3949012624699" x2="37.390625" y2="123.3949012624699" style="visibility: inherit;" fill="rgb(0, 0, 0)" stroke="rgb(204, 204, 204)" stroke-width="1px"></line><line x1="42.390625" y1="89.73761973932511" x2="37.390625" y2="89.73761973932511" style="visibility: inherit;" fill="rgb(0, 0, 0)" stroke="rgb(204, 204, 204)" stroke-width="1px"></line><line x1="42.390625" y1="56.080338216180316" x2="37.390625" y2="56.080338216180316" style="visibility: inherit;" fill="rgb(0, 0, 0)" stroke="rgb(204, 204, 204)" stroke-width="1px"></line><line x1="42.390625" y1="22.423056693035484" x2="37.390625" y2="22.423056693035484" style="visibility: inherit;" fill="rgb(0, 0, 0)" stroke="rgb(204, 204, 204)" stroke-width="1px"></line></g><g transform="translate(32.390625, 0)"><text x="0" y="358.9958719244834" dx="0em" dy="0.3em" style="text-anchor: end; visibility: inherit; font-family: Roboto, sans-serif; font-size: 12px; font-weight: 200;" fill="rgb(50, 49, 63)" stroke="none" stroke-width="1px">10</text><text x="0" y="325.33859040133865" dx="0em" dy="0.3em" style="text-anchor: end; visibility: inherit; font-family: Roboto, sans-serif; font-size: 12px; font-weight: 200;" fill="rgb(50, 49, 63)" stroke="none" stroke-width="1px">20</text><text x="0" y="291.6813088781939" dx="0em" dy="0.3em" style="text-anchor: end; visibility: inherit; font-family: Roboto, sans-serif; font-size: 12px; font-weight: 200;" fill="rgb(50, 49, 63)" stroke="none" stroke-width="1px">30</text><text x="0" y="258.02402735504904" dx="0em" dy="0.3em" style="text-anchor: end; visibility: inherit; font-family: Roboto, sans-serif; font-size: 12px; font-weight: 200;" fill="rgb(50, 49, 63)" stroke="none" stroke-width="1px">40</text><text x="0" y="224.36674583190427" dx="0em" dy="0.3em" style="text-anchor: end; visibility: inherit; font-family: Roboto, sans-serif; font-size: 12px; font-weight: 200;" fill="rgb(50, 49, 63)" stroke="none" stroke-width="1px">50</text><text x="0" y="190.7094643087595" dx="0em" dy="0.3em" style="text-anchor: end; visibility: inherit; font-family: Roboto, sans-serif; font-size: 12px; font-weight: 200;" fill="rgb(50, 49, 63)" stroke="none" stroke-width="1px">60</text><text x="0" y="157.0521827856147" dx="0em" dy="0.3em" style="text-anchor: end; visibility: inherit; font-family: Roboto, sans-serif; font-size: 12px; font-weight: 200;" fill="rgb(50, 49, 63)" stroke="none" stroke-width="1px">70</text><text x="0" y="123.3949012624699" dx="0em" dy="0.3em" style="text-anchor: end; visibility: inherit; font-family: Roboto, sans-serif; font-size: 12px; font-weight: 200;" fill="rgb(50, 49, 63)" stroke="none" stroke-width="1px">80</text><text x="0" y="89.73761973932511" dx="0em" dy="0.3em" style="text-anchor: end; visibility: inherit; font-family: Roboto, sans-serif; font-size: 12px; font-weight: 200;" fill="rgb(50, 49, 63)" stroke="none" stroke-width="1px">90</text><text x="0" y="56.080338216180316" dx="0em" dy="0.3em" style="text-anchor: end; visibility: inherit; font-family: Roboto, sans-serif; font-size: 12px; font-weight: 200;" fill="rgb(50, 49, 63)" stroke="none" stroke-width="1px">100</text><text x="0" y="22.423056693035484" dx="0em" dy="0.3em" style="text-anchor: end; visibility: inherit; font-family: Roboto, sans-serif; font-size: 12px; font-weight: 200;" fill="rgb(50, 49, 63)" stroke="none" stroke-width="1px">110</text></g><line x1="42.390625" y1="0" x2="42.390625" y2="377" fill="rgb(0, 0, 0)" stroke="rgb(204, 204, 204)" stroke-width="1px"></line></g></g><g transform="translate(42, 0)" clip-path="url(#clip_0)"><clipPath id="clip_0"><rect width="693" height="377"></rect></clipPath><g><g><g><line x1="24.000960514225827" y1="0" x2="24.000960514225827" y2="377" fill="rgb(0, 0, 0)" stroke="rgb(60, 60, 60)" stroke-width="1px" opacity="0.25"></line><line x1="119.44253889534758" y1="0" x2="119.44253889534758" y2="377" fill="rgb(0, 0, 0)" stroke="rgb(60, 60, 60)" stroke-width="1px" opacity="0.25"></line><line x1="214.88411727646928" y1="0" x2="214.88411727646928" y2="377" fill="rgb(0, 0, 0)" stroke="rgb(60, 60, 60)" stroke-width="1px" opacity="0.25"></line><line x1="310.32569565759104" y1="0" x2="310.32569565759104" y2="377" fill="rgb(0, 0, 0)" stroke="rgb(60, 60, 60)" stroke-width="1px" opacity="0.25"></line><line x1="405.7672740387128" y1="0" x2="405.7672740387128" y2="377" fill="rgb(0, 0, 0)" stroke="rgb(60, 60, 60)" stroke-width="1px" opacity="0.25"></line><line x1="501.20885241983456" y1="0" x2="501.20885241983456" y2="377" fill="rgb(0, 0, 0)" stroke="rgb(60, 60, 60)" stroke-width="1px" opacity="0.25"></line><line x1="596.6504308009563" y1="0" x2="596.6504308009563" y2="377" fill="rgb(0, 0, 0)" stroke="rgb(60, 60, 60)" stroke-width="1px" opacity="0.25"></line><line x1="692.0920091820781" y1="0" x2="692.0920091820781" y2="377" fill="rgb(0, 0, 0)" stroke="rgb(60, 60, 60)" stroke-width="1px" opacity="0.25"></line></g><g><line x1="0" y1="358.9958719244834" x2="693.609375" y2="358.9958719244834" fill="rgb(0, 0, 0)" stroke="rgb(60, 60, 60)" stroke-width="1px" opacity="0.25"></line><line x1="0" y1="325.33859040133865" x2="693.609375" y2="325.33859040133865" fill="rgb(0, 0, 0)" stroke="rgb(60, 60, 60)" stroke-width="1px" opacity="0.25"></line><line x1="0" y1="291.6813088781939" x2="693.609375" y2="291.6813088781939" fill="rgb(0, 0, 0)" stroke="rgb(60, 60, 60)" stroke-width="1px" opacity="0.25"></line><line x1="0" y1="258.02402735504904" x2="693.609375" y2="258.02402735504904" fill="rgb(0, 0, 0)" stroke="rgb(60, 60, 60)" stroke-width="1px" opacity="0.25"></line><line x1="0" y1="224.36674583190427" x2="693.609375" y2="224.36674583190427" fill="rgb(0, 0, 0)" stroke="rgb(60, 60, 60)" stroke-width="1px" opacity="0.25"></line><line x1="0" y1="190.7094643087595" x2="693.609375" y2="190.7094643087595" fill="rgb(0, 0, 0)" stroke="rgb(60, 60, 60)" stroke-width="1px" opacity="0.25"></line><line x1="0" y1="157.0521827856147" x2="693.609375" y2="157.0521827856147" fill="rgb(0, 0, 0)" stroke="rgb(60, 60, 60)" stroke-width="1px" opacity="0.25"></line><line x1="0" y1="123.3949012624699" x2="693.609375" y2="123.3949012624699" fill="rgb(0, 0, 0)" stroke="rgb(60, 60, 60)" stroke-width="1px" opacity="0.25"></line><line x1="0" y1="89.73761973932511" x2="693.609375" y2="89.73761973932511" fill="rgb(0, 0, 0)" stroke="rgb(60, 60, 60)" stroke-width="1px" opacity="0.25"></line><line x1="0" y1="56.080338216180316" x2="693.609375" y2="56.080338216180316" fill="rgb(0, 0, 0)" stroke="rgb(60, 60, 60)" stroke-width="1px" opacity="0.25"></line><line x1="0" y1="22.423056693035484" x2="693.609375" y2="22.423056693035484" fill="rgb(0, 0, 0)" stroke="rgb(60, 60, 60)" stroke-width="1px" opacity="0.25"></line></g></g></g><g><g><line x1="0" y1="392.65315344762826" x2="693.609375" y2="392.65315344762826" fill="rgb(0, 0, 0)" stroke="rgb(153, 153, 153)" stroke-width="1.5px"></line></g></g><g><g><line x1="24.000960514225827" y1="0" x2="24.000960514225827" y2="377" fill="rgb(0, 0, 0)" stroke="rgb(153, 153, 153)" stroke-width="1.5px"></line></g></g><g><g><g><g><g><path stroke="rgb(0, 153, 136)" stroke-width="2px" d="M24.000960514225827,6.005220061870224L25.909792081848266,139.3744240995227L27.818623649470698,199.296869092697L29.727455217093134,234.9086505774975L31.63628678471557,258.0244389366971L33.54511835233801,273.9676070944509L35.453949919960436,285.7247020742036L37.36278148758287,293.9601028068159L39.27161305520531,300.7194874742984L41.18044462282774,305.734562200332L43.08927619045018,309.4702685625113L44.998107758072614,312.6296288861998L46.90693932569505,315.64486842590844L48.81577089331748,317.93802864810453L50.72460246093991,320.13758972276884L52.633434028562355,321.583561994752L54.542265596184784,323.33890867005465L56.45109716380722,324.0927419612372L58.35992873142965,325.8234297117545L60.26876029905209,327.1265963154302L62.177591866674526,328.28712107515645L64.08642343429696,329.30375247009414L65.99525500191939,329.95514243902227L67.90408656954183,330.81758353741765L69.81291813716426,331.1997222380146L71.7217497047867,332.1992548340111L73.63058127240913,332.987427769627L75.53941284003157,333.48968408946575L77.448244407654,334.40659444114925L79.35707597527643,335.1957608042373L81.26590754289887,335.65666522022855L83.17473911052132,337.4654703820684L85.08357067814374,338.84440594102404L86.99240224576619,339.7296683293916L88.90123381338861,340.5446704001833L90.81006538101104,341.1732174174836L92.71889694863349,341.5878567299412L94.62772851625591,342.1263345209748L96.53656008387834,342.46635742789533L98.44539165150078,342.7920383207617L100.35422321912321,342.9370502949463L102.26305478674567,343.29199560165887L104.1718863543681,343.03372309676917L106.08071792199053,343.48732002576446L107.98954948961295,343.7817722289956L109.8983810572354,344.17382426878055L111.80721262485783,344.3980753797362L113.71604419248025,344.39646468602547L115.6248757601027,344.7358637947527L117.53370732772514,345.1084919737018L119.44253889534758,345.523139793306L121.35137046297001,345.43555211011466L123.26020203059244,345.34046183410254L125.16903359821487,345.69579102468253L127.07786516583731,346.1972087990951L128.98669673345972,346.2882638126711L130.89552830108218,346.50046246805954L132.8043598687046,346.63250136370345L134.71319143632707,346.9674925133481L136.6220230039495,346.94942547690044L138.53085457157192,347.1814445014472L140.43968613919435,347.4191071623298L142.34851770681678,348.57302682487773L144.2573492744392,349.2307358012831L146.16618084206164,349.7282573760846L148.0750124096841,350.14750790946164L149.98384397730652,350.4467148981729L151.89267554492898,350.4991627730878L153.8015071125514,350.727124418782L155.71033868017383,350.9187750083033L157.61917024779626,351.0179833756086L159.5280018154187,351.2125707178388L161.43683338304112,351.30202691173656L163.34566495066355,351.44475098711L165.254496518286,351.53841508926484L167.16332808590843,351.6829192340218L169.0721596535309,351.68128137148017L170.98099122115332,351.6007018228995L172.88982278877575,351.6270835712052L174.79865435639817,351.8001983721307L176.7074859240206,352.10191856438627L178.61631749164303,351.931371367833L180.52514905926546,352.08018745400324L182.43398062688792,352.2663555456975L184.34281219451034,352.4090836935488L186.25164376213277,352.5281205655338L188.16047532975523,352.7386390978882L190.06930689737766,352.7517800733122L191.97813846500011,352.73156214323234L193.88697003262254,352.8111754155081L195.79580160024497,352.88754919217985L197.7046331678674,352.94410834171316L199.61346473548983,353.7287410029788L201.52229630311226,354.19299184925967L203.43112787073468,354.50681815238676L205.33995943835714,354.792427624287L207.24879100597957,354.93120347981704L209.157622573602,355.04113094641684L211.06645414122443,355.1812262990678L212.97528570884685,355.27863503007364L214.88411727646928,355.33951715528644L216.7929488440917,355.5013445148198L218.7017804117142,355.57760927340803L220.61061197933662,355.5639982267166L222.51944354695905,355.63805020133606L224.42827511458148,355.73959671846535L226.33710668220394,355.7890630445695L228.24593824982637,355.8186593852111L230.1547698174488,355.8879397516323L232.06360138507122,355.9559940272613L233.97243295269365,355.9855704362089L235.88126452031608,356.06884388003846L237.7900960879385,356.082117267393L239.69892765556096,356.11054447092226L241.6077592231834,356.2376227568567L243.51659079080582,356.27828835929006L245.42542235842825,356.33405525328527L247.33425392605068,356.35105677564417L249.24308549367316,356.40369264128503L251.1519170612956,356.4423203322775L253.06074862891802,356.4420370985457L254.96958019654045,356.42292158464653L256.8784117641629,356.5062096748457L258.7872433317853,357.04478599767094L260.69607489940773,357.3853982852718L262.60490646703016,357.6399965929302L264.5137380346526,357.82704660363754L266.422569602275,357.98847013505434L268.3314011698975,358.0910030470935L270.24023273751993,358.136923125032L272.14906430514236,358.1954408363068L274.0578958727648,358.2239431093424L275.9667274403872,358.23730697215234L277.87555900800965,358.2997122849754L279.7843905756321,358.31825226848116L281.69322214325456,358.38042890465726L283.602053710877,358.3499398791811L285.5108852784994,358.35130718288815L287.41971684612184,358.42425196199207L289.3285484137443,358.46256985855354L291.2373799813667,358.5829513219183L293.14621154898913,358.557949964934L295.05504311661156,358.5940249074372L296.963874684234,358.6245456353891L298.8727062518564,358.65656138658653L300.78153781947884,358.6887204886967L302.6903693871013,358.70583841587984L304.59920095472376,358.7877058765529L306.5080325223462,358.81565959181813L308.4168640899686,358.8539105755015L310.32569565759104,358.85587415384873L312.2345272252135,358.8889616490663L314.14335879283595,358.9187016402844L316.0521903604584,359.267673331116L317.9610219280808,359.54045006338856L319.86985349570324,359.69770547322616L321.77868506332567,359.81320236964615L323.6875166309481,359.8410041032764L325.5963481985705,359.9164336263745L327.50517976619295,359.98128272736267L329.4140113338154,360.0449475149913L331.3228429014378,360.0781480737803L333.23167446906024,360.0832788954328L335.14050603668267,360.1139745807141L337.0493376043051,360.1471262967977L338.9581691719276,360.1970290358749L340.86700073955,360.2059014963609L342.77583230717244,360.21377484452086L344.68466387479486,360.25855341166255L346.59349544241735,360.28165994031497L348.5023270100398,360.33071234607394L350.41115857766215,360.3335010950986L352.31999014528463,360.36874894136963L354.228821712907,360.3762521112589L356.1376532805295,360.3987096819128L358.046484848152,360.4381220447904L359.95531641577435,360.4321865835049L361.86414798339683,360.47284619640567L363.7729795510192,360.4942915081777L365.6818111186417,360.5187538074477L367.59064268626406,360.5331538595558L369.49947425388655,360.59424601339697L371.4083058215089,360.62239274534346L373.3171373891314,360.6423339543517L375.22596895675383,360.905372468072L377.13480052437626,361.0325406212548L379.0436320919987,361.147785477671L380.9524636596212,361.2598886166458L382.86129522724355,361.32144602837366L384.77012679486603,361.3484994009398L386.6789583624884,361.3890566371769L388.5877899301109,361.4212896756634L390.4966214977334,361.4450243685464L392.40545306535574,361.452027708082L394.31428463297823,361.487895114567L396.2231162006006,361.49200042148817L398.1319477682231,361.53276432452503L400.04077933584546,361.55867093194007L401.94961090346794,361.5803559020015L403.8584424710903,361.60109225112376L405.7672740387128,361.60063319829453L407.6761056063352,361.62392803233655L409.58493717395766,361.6426413261768L411.4937687415801,361.6716965788614L413.4026003092025,361.7004680579994L415.31143187682494,361.7147612306628L417.2202634444474,361.7122851216513L419.1290950120698,361.74868546787104L421.0379265796923,361.7756395424969L422.9467581473147,361.75764678565304L424.85558971493714,361.7743745974285L426.7644212825596,361.79652124998324L428.673252850182,361.8096859848698L430.5820844178045,361.8399867212492L432.49091598542685,362.0278581828899L434.39974755304934,362.166023285928L436.3085791206717,362.25391680976895L438.2174106882942,362.31296854326797L440.12624225591657,362.36413663245605L442.03507382353905,362.3968211476187L443.9439053911615,362.42197968971885L445.8527369587839,362.44178809777276L447.76156852640634,362.47094448015434L449.67040009402876,362.47361156218375L451.57923166165125,362.4787413168224L453.4880632292737,362.4889757586257L455.3968947968961,362.5076654909992L457.30572636451853,362.52273880415754L459.21455793214096,362.5166350638036L461.1233894997634,362.5347738388884L463.0322210673859,362.54716314608504L464.94105263500825,362.5601086135504L466.84988420263073,362.57010478504844L468.7587157702531,362.6068126517028L470.6675473378756,362.6140427223808L472.57637890549796,362.6215096861085L474.48521047312045,362.61387733100884L476.3940420407428,362.64494091539945L478.3028736083653,362.650932420564L480.21170517598773,362.65469423370456L482.12053674361016,362.6775993776746L484.02936831123264,362.6889517986897L485.938199878855,362.71947474861196L487.8470314464775,362.722061740864L489.7558630141,362.7301709330084L491.66469458172236,362.8752845367465L493.57352614934484,362.9611573663058L495.4823577169673,363.022781689413L497.3911892845897,363.0451567903193L499.3000208522121,363.0911858016306L501.20885241983456,363.1104191886287L503.11768398745704,363.128351875426L505.02651555507947,363.151999510573L506.9353471227019,363.18344273820617L508.8441786903243,363.1742600842345L510.75301025794676,363.1915812177138L512.6618418255691,363.2087465937256L514.5706733931917,363.2145893212184L516.4795049608141,363.2214293067785L518.3883365284365,363.23225335317943L520.297168096059,363.2406839375041L522.2059996636814,363.2588883797705L524.1148312313038,363.2752612999546L526.0236627989262,363.28022155023365L527.9324943665487,363.29464387749374L529.8413259341711,363.3133362708984L531.7501575017935,363.312255572559L533.658989069416,363.33520951737984L535.5678206370385,363.3452854688097L537.4766522046608,363.34917790012923L539.3854837722834,363.3606061044252L541.2943153399057,363.35896987372536L543.2031469075282,363.3917399135907L545.1119784751505,363.3815828165926L547.0208100427731,363.40737222813493L548.9296416103954,363.3930164827558L550.8384731780179,363.4836952515086L552.7473047456403,363.539521248115L554.6561363132628,363.5987286960462L556.5649678808852,363.6284896326714L558.4737994485076,363.6570451283217L560.3826310161301,363.6717903281917L562.2914625837525,363.6640619970462L564.2002941513749,363.6884390993057L566.1091257189973,363.6973685925447L568.0179572866198,363.7158428499215L569.9267888542422,363.7266885945956L571.8356204218647,363.75265775226615L573.7444519894871,363.7432027406085L575.6532835571096,363.74163572064055L577.5621151247319,363.7505573242794L579.4709466923545,363.7502738627457L581.3797782599768,363.77345321674056L583.2886098275993,363.78832890737954L585.1974413952216,363.79864609472634L587.1062729628442,363.7861309271497L589.0151045304666,363.801326727973L590.923936098089,363.79516166826124L592.8327676657115,363.80484111424073L594.7415992333339,363.79484882049337L596.6504308009563,363.81540883188467L598.5592623685787,363.81762367057337L600.4680939362012,363.82693472555167L602.3769255038236,363.8326330598743L604.2857570714461,363.86019880781305L606.1945886390685,363.8658672771659L608.103420206691,363.932161346426L610.0122517743133,363.9764417912621L611.9210833419359,364.0097776183943L613.8299149095582,364.03340363042605L615.7387464771807,364.0422496716202L617.647578044803,364.05084927592907L619.5564096124256,364.06401943659415L621.4652411800479,364.0634746009581L623.3740727476704,364.06991654373047L625.2829043152929,364.0803515454212L627.1917358829153,364.08229856381854L629.1005674505377,364.1060086179546L631.0093990181601,364.1019900989515L632.9182305857826,364.1018592355044L634.827062153405,364.1133360280176L636.7358937210274,364.1099404449548L638.6447252886499,364.1176198273928L640.5535568562724,364.12765460105874L642.4623884238947,364.133961780176L644.3712199915173,364.13493557932827L646.2800515591396,364.14396679085473L648.1888831267621,364.155236356695L650.0977146943844,364.16873099049803L652.006546262007,364.1561489005325L653.9153778296293,364.16186514310084L655.8242093972518,364.1651485213744L657.7330409648742,364.1767852076017L659.6418725324967,364.16627376304103L661.5507041001191,364.19225885368644L663.4595356677415,364.18828933510594L665.368367235364,364.1889068690152L667.2771988029864,364.24419464486124" style="fill: none;" fill="none"></path></g></g></g></g><g opacity="0.2"><g><g><g><path stroke="rgb(0, 153, 136)" stroke-width="2px" d="M24.000960514225827,6.005220061870266L25.909792081848266,219.39594652211417L27.818623649470698,256.82241628614435L29.727455217093134,276.7881056036228L31.63628678471557,288.20441221846806L33.54511835233801,296.02274819716126L35.453949919960436,302.5375360087696L37.36278148758287,305.96739613481157L39.27161305520531,310.6882669159573L41.18044462282774,313.18136369162306L43.08927619045018,315.0399455240233L44.998107758072614,317.35147627236836L46.90693932569505,320.15788245521816L48.81577089331748,321.3732764417998L50.72460246093991,323.43434583329037L52.633434028562355,323.75150059105124L54.542265596184784,325.97118587912416L56.45109716380722,325.22330049981997L58.35992873142965,328.419197684671L60.26876029905209,329.0812271063545L62.177591866674526,330.0278445688099L64.08642343429696,330.8286661098115L65.99525500191939,330.9322145318559L67.90408656954183,332.11123496857374L69.81291813716426,331.7729275728317L71.7217497047867,333.69854946545576L73.63058127240913,334.16968515633243L75.53941284003157,334.24306779814214L77.448244407654,335.7819591240705L79.35707597527643,336.3795099127091L81.26590754289887,336.34802169137447L83.17473911052132,340.17867776493654L85.08357067814374,340.91280911484023L86.99240224576619,341.0575618485333L88.90123381338861,341.7671734713447L90.81006538101104,342.1160379272264L92.71889694863349,342.20981569221243L94.62772851625591,342.93405120252646L96.53656008387834,342.97639178638224L98.44539165150078,343.28055965897295L100.35422321912321,343.15456825593236L102.26305478674567,343.82441356130084L104.1718863543681,342.64631433962103L106.08071792199053,344.1677154190609L107.98954948961295,344.2234505337658L109.8983810572354,344.7619023283969L111.80721262485783,344.73445204614876L113.71604419248025,344.3940486454595L115.6248757601027,345.244962457832L117.53370732772514,345.66743424211796L119.44253889534758,346.1451115227072L121.35137046297001,345.30417058532834L123.26020203059244,345.1978264200849L125.16903359821487,346.2287848105514L127.07786516583731,346.9493354607133L128.98669673345972,346.42484633303496L130.89552830108218,346.8187604511421L132.8043598687046,346.83055970716924L134.71319143632707,347.46997923781487L136.6220230039495,346.92232492222905L138.53085457157192,347.52947303826727L140.43968613919435,347.7756011536537L142.34851770681678,350.30390631869966L144.2573492744392,350.21729926589114L146.16618084206164,350.47453973828686L148.0750124096841,350.77638370952724L149.98384397730652,350.89552538123974L151.89267554492898,350.57783458546015L153.8015071125514,351.06906688732323L155.71033868017383,351.2062508925854L157.61917024779626,351.16679592656646L159.5280018154187,351.5044517311841L161.43683338304112,351.4362112025832L163.34566495066355,351.6588371001703L165.254496518286,351.6789112424971L167.16332808590843,351.8996754511572L169.0721596535309,351.6788245776678L170.98099122115332,351.47983250002846L172.88982278877575,351.66665619366375L174.79865435639817,352.05987057351905L176.7074859240206,352.55449885276965L178.61631749164303,351.675550573003L180.52514905926546,352.3034115832586L182.43398062688792,352.54560768323887L184.34281219451034,352.6231759153259L186.25164376213277,352.7066758735113L188.16047532975523,353.0544168964198L190.06930689737766,352.7714915364482L191.97813846500011,352.70123524811254L193.88697003262254,352.9305953239218L195.79580160024497,353.00210985718746L197.7046331678674,353.0289470660131L199.61346473548983,354.9056899948773L201.52229630311226,354.88936811868086L203.43112787073468,354.9775576070774L205.33995943835714,355.2208418321374L207.24879100597957,355.13936726311215L209.157622573602,355.20602214631657L211.06645414122443,355.3913693280442L212.97528570884685,355.42474812658236L214.88411727646928,355.4308403431056L216.7929488440917,355.74408555411975L218.7017804117142,355.69200641129055L220.61061197933662,355.54358165667935L222.51944354695905,355.7491281632652L224.42827511458148,355.8919164941594L226.33710668220394,355.86326253372573L228.24593824982637,355.86305389617354L230.1547698174488,355.99186030126407L232.06360138507122,356.0580754407047L233.97243295269365,356.02993504963024L235.88126452031608,356.1937540457828L237.7900960879385,356.10202734842494L239.69892765556096,356.15318527621616L241.6077592231834,356.42824018575834L243.51659079080582,356.3392867629401L245.42542235842825,356.4177055942782L247.33425392605068,356.3765590591825L249.24308549367316,356.48264643974636L251.1519170612956,356.5002618687662L253.06074862891802,356.441612247948L254.96958019654045,356.39424831379773L256.8784117641629,356.6311418101444L258.7872433317853,357.8526504819088L260.69607489940773,357.896316716673L262.60490646703016,358.0218940544177L264.5137380346526,358.10762161969865L266.422569602275,358.2306054321795L268.3314011698975,358.2448024151523L270.24023273751993,358.2058032419397L272.14906430514236,358.2832174032189L274.0578958727648,358.26669651889586L275.9667274403872,358.25735276636726L277.87555900800965,358.39332025420987L279.7843905756321,358.34606224373994L281.69322214325456,358.47369385892137L283.602053710877,358.3042063409668L285.5108852784994,358.35335813844875L287.41971684612184,358.5336691306479L289.3285484137443,358.52004670339574L291.2373799813667,358.7635235169654L293.14621154898913,358.5204479294576L295.05504311661156,358.64813732119194L296.963874684234,358.67032672731693L298.8727062518564,358.70458501338265L300.78153781947884,358.7369591418619L302.6903693871013,358.7315153066546L304.59920095472376,358.91050706756243L306.5080325223462,358.85759016471604L308.4168640899686,358.91128705102665L310.32569565759104,358.8588195213695L312.2345272252135,358.9385928918925L314.14335879283595,358.96331162711147L316.0521903604584,359.7911308673634L317.9610219280808,359.94961516179745L319.86985349570324,359.93358858798257L321.77868506332567,359.9864477142761L323.6875166309481,359.88270670372196L325.5963481985705,360.0295779110216L327.50517976619295,360.0785563788448L329.4140113338154,360.1404446964343L331.3228429014378,360.1279489119638L333.23167446906024,360.0909751279114L335.14050603668267,360.16001810863605L337.0493376043051,360.1968538709232L338.9581691719276,360.2718831444907L340.86700073955,360.2192101870899L342.77583230717244,360.2255848667607L344.68466387479486,360.3257212623751L346.59349544241735,360.31631973329365L348.5023270100398,360.4042909547125L350.41115857766215,360.33768421863545L352.31999014528463,360.42162071077627L354.228821712907,360.3875068660928L356.1376532805295,360.4323960378935L358.046484848152,360.49724058910687L359.95531641577435,360.4232833915766L361.86414798339683,360.53383561575686L363.7729795510192,360.5264594758356L365.6818111186417,360.5554472563528L367.59064268626406,360.5547539377179L369.49947425388655,360.68588424415873L371.4083058215089,360.6646128432632L373.3171373891314,360.672245767864L375.22596895675383,361.29993023865245L377.13480052437626,361.223292851029L379.0436320919987,361.32065276229525L380.9524636596212,361.4280433251081L382.86129522724355,361.4137821459654L384.77012679486603,361.3890794597889L386.6789583624884,361.44989249153264L388.5877899301109,361.4696392333931L390.4966214977334,361.480626407871L392.40545306535574,361.46253271738544L394.31428463297823,361.54169622429436L396.2231162006006,361.49815838187L398.1319477682231,361.5939101790804L400.04077933584546,361.5975308430626L401.94961090346794,361.61288335709355L403.8584424710903,361.63219677480714L405.7672740387128,361.59994461905075L407.6761056063352,361.6588702833995L409.58493717395766,361.6707112669371L411.4937687415801,361.71527945788836L413.4026003092025,361.7436252767065L415.31143187682494,361.73620098965785L417.2202634444474,361.70857095813403L419.1290950120698,361.8032859872006L421.0379265796923,361.81607065443563L422.9467581473147,361.73065765038723L424.85558971493714,361.7994663150917L426.7644212825596,361.8297412288153L428.673252850182,361.8294330871998L430.5820844178045,361.88543782581826L432.49091598542685,362.30966537535096L434.39974755304934,362.37327094048527L436.3085791206717,362.38575709553027L438.2174106882942,362.40154614351655L440.12624225591657,362.4408887662381L442.03507382353905,362.44584792036267L443.9439053911615,362.459717502869L445.8527369587839,362.4715007098537L447.76156852640634,362.51467905372664L449.67040009402876,362.4776121852279L451.57923166165125,362.4864359487803L453.4880632292737,362.5043274213307L455.3968947968961,362.53570008955955L457.30572636451853,362.5453487738951L459.21455793214096,362.50747945327265L461.1233894997634,362.5619820015155L463.0322210673859,362.56574710688L464.94105263500825,362.5795268147485L466.84988420263073,362.58509904229555L468.7587157702531,362.6618744516843L470.6675473378756,362.6248878283979L472.57637890549796,362.6327101316999L474.48521047312045,362.60242879835937L476.3940420407428,362.69153629198536L478.3028736083653,362.6599196783109L480.21170517598773,362.66033695341525L482.12053674361016,362.71195709362974L484.02936831123264,362.70598043021226L485.938199878855,362.7652591734955L487.8470314464775,362.72594222924187L489.7558630141,362.7423347212251L491.66469458172236,363.0929549423535L493.57352614934484,363.0899666106448L495.4823577169673,363.11521817407396L497.3911892845897,363.0787194416788L499.3000208522121,363.1602293185975L501.20885241983456,363.139269269126L503.11768398745704,363.1552509056219L505.02651555507947,363.1874709632934L506.9353471227019,363.23060757965595L508.8441786903243,363.16048610327704L510.75301025794676,363.2175629179328L512.6618418255691,363.2344946577432L514.5706733931917,363.2233534124575L516.4795049608141,363.2316892851187L518.3883365284365,363.24848942278084L520.297168096059,363.2533298139911L522.2059996636814,363.28619504317004L524.1148312313038,363.29982068023077L526.0236627989262,363.28766192565223L527.9324943665487,363.31627736838396L529.8413259341711,363.3413748610053L531.7501575017935,363.31063452505L533.658989069416,363.36964043461114L535.5678206370385,363.3603993959544L537.4766522046608,363.3550165471085L539.3854837722834,363.3777484108692L541.2943153399057,363.3565155276756L543.2031469075282,363.4408949733887L545.1119784751505,363.3663471710954L547.0208100427731,363.4460563454484L548.9296416103954,363.3714828646872L550.8384731780179,363.61971340463776L552.7473047456403,363.6232602430246L554.6561363132628,363.68753986794286L556.5649678808852,363.6731310376094L558.4737994485076,363.69987837179707L560.3826310161301,363.6939081279967L562.2914625837525,363.6524695003279L564.2002941513749,363.72500475269493L566.1091257189973,363.7107628324032L568.0179572866198,363.7435542359868L569.9267888542422,363.7429572116067L571.8356204218647,363.79161148877193L573.7444519894871,363.729020223122L575.6532835571096,363.73928519068863L577.5621151247319,363.7639397297377L579.4709466923545,363.7498486704452L581.3797782599768,363.8082222477329L583.2886098275993,363.810642443338L585.1974413952216,363.8141218757465L587.1062729628442,363.7673581757847L589.0151045304666,363.824120429208L590.923936098089,363.78591407869357L592.8327676657115,363.8193602832101L594.7415992333339,363.7798603798722L596.6504308009563,363.8462488489716L598.5592623685787,363.82094592860653L600.4680939362012,363.84090130801917L602.3769255038236,363.84118056135816L604.2857570714461,363.9015474297212L606.1945886390685,363.8743699811951L608.103420206691,364.0316024503162L610.0122517743133,364.0428624585162L611.9210833419359,364.05978135909265L613.8299149095582,364.06884264847366L615.7387464771807,364.0555187334115L617.647578044803,364.0637486823923L619.5564096124256,364.0837746775918L621.4652411800479,364.06265734750406L623.3740727476704,364.079579457889L625.2829043152929,364.0960040479572L627.1917358829153,364.0852190914145L629.1005674505377,364.14157369915887L631.0093990181601,364.0959623204468L632.9182305857826,364.1016629403337L634.827062153405,364.13055121678747L636.7358937210274,364.1048470703606L638.6447252886499,364.12913890104977L640.5535568562724,364.1427067615576L642.4623884238947,364.1434225488519L644.3712199915173,364.1363962780566L646.2800515591396,364.15751360814437L648.1888831267621,364.1721407054555L650.0977146943844,364.1889729412026L652.006546262007,364.13727576558426L653.9153778296293,364.1704395069532L655.8242093972518,364.1700735887848L657.7330409648742,364.1942402369427L659.6418725324967,364.1505065962001L661.5507041001191,364.2312364896545L663.4595356677415,364.1823350572352L665.368367235364,364.1898331698792L667.2771988029864,364.3271263086302" style="fill: none;" fill="none"></path></g></g></g></g></g></g><g transform="translate(42, 377)" clip-path="url(#clip_1)"><clipPath id="clip_1"><rect width="693" height="23"></rect></clipPath><g><g><line x1="24.000960514225827" y1="0" x2="24.000960514225827" y2="5" style="visibility: inherit;" fill="rgb(0, 0, 0)" stroke="rgb(204, 204, 204)" stroke-width="1px"></line><line x1="119.44253889534758" y1="0" x2="119.44253889534758" y2="5" style="visibility: inherit;" fill="rgb(0, 0, 0)" stroke="rgb(204, 204, 204)" stroke-width="1px"></line><line x1="214.88411727646928" y1="0" x2="214.88411727646928" y2="5" style="visibility: inherit;" fill="rgb(0, 0, 0)" stroke="rgb(204, 204, 204)" stroke-width="1px"></line><line x1="310.32569565759104" y1="0" x2="310.32569565759104" y2="5" style="visibility: inherit;" fill="rgb(0, 0, 0)" stroke="rgb(204, 204, 204)" stroke-width="1px"></line><line x1="405.7672740387128" y1="0" x2="405.7672740387128" y2="5" style="visibility: inherit;" fill="rgb(0, 0, 0)" stroke="rgb(204, 204, 204)" stroke-width="1px"></line><line x1="501.20885241983456" y1="0" x2="501.20885241983456" y2="5" style="visibility: inherit;" fill="rgb(0, 0, 0)" stroke="rgb(204, 204, 204)" stroke-width="1px"></line><line x1="596.6504308009563" y1="0" x2="596.6504308009563" y2="5" style="visibility: inherit;" fill="rgb(0, 0, 0)" stroke="rgb(204, 204, 204)" stroke-width="1px"></line><line x1="692.0920091820781" y1="0" x2="692.0920091820781" y2="5" style="visibility: inherit;" fill="rgb(0, 0, 0)" stroke="rgb(204, 204, 204)" stroke-width="1px"></line></g><g transform="translate(0, 8)"><text x="24.000960514225827" y="0" dx="0em" dy="0.95em" style="text-anchor: middle; visibility: inherit; font-family: Roboto, sans-serif; font-size: 12px; font-weight: 200;" fill="rgb(50, 49, 63)" stroke="none" stroke-width="1px">0</text><text x="119.44253889534758" y="0" dx="0em" dy="0.95em" style="text-anchor: middle; visibility: inherit; font-family: Roboto, sans-serif; font-size: 12px; font-weight: 200;" fill="rgb(50, 49, 63)" stroke="none" stroke-width="1px">50</text><text x="214.88411727646928" y="0" dx="0em" dy="0.95em" style="text-anchor: middle; visibility: inherit; font-family: Roboto, sans-serif; font-size: 12px; font-weight: 200;" fill="rgb(50, 49, 63)" stroke="none" stroke-width="1px">100</text><text x="310.32569565759104" y="0" dx="0em" dy="0.95em" style="text-anchor: middle; visibility: inherit; font-family: Roboto, sans-serif; font-size: 12px; font-weight: 200;" fill="rgb(50, 49, 63)" stroke="none" stroke-width="1px">150</text><text x="405.7672740387128" y="0" dx="0em" dy="0.95em" style="text-anchor: middle; visibility: inherit; font-family: Roboto, sans-serif; font-size: 12px; font-weight: 200;" fill="rgb(50, 49, 63)" stroke="none" stroke-width="1px">200</text><text x="501.20885241983456" y="0" dx="0em" dy="0.95em" style="text-anchor: middle; visibility: inherit; font-family: Roboto, sans-serif; font-size: 12px; font-weight: 200;" fill="rgb(50, 49, 63)" stroke="none" stroke-width="1px">250</text><text x="596.6504308009563" y="0" dx="0em" dy="0.95em" style="text-anchor: middle; visibility: inherit; font-family: Roboto, sans-serif; font-size: 12px; font-weight: 200;" fill="rgb(50, 49, 63)" stroke="none" stroke-width="1px">300</text><text x="692.0920091820781" y="0" dx="0em" dy="0.95em" style="text-anchor: middle; visibility: hidden; font-family: Roboto, sans-serif; font-size: 12px; font-weight: 200;" fill="rgb(50, 49, 63)" stroke="none" stroke-width="1px">350</text></g><line x1="0" y1="0" x2="693.609375" y2="0" fill="rgb(0, 0, 0)" stroke="rgb(204, 204, 204)" stroke-width="1px"></line></g></g></g></g></svg>