<svg viewBox="0 0 330 200" xmlns="http://www.w3.org/2000/svg"><g><g><g><g><g><line x1="31.59375" y1="177" x2="26.59375" y2="177" style="visibility: inherit;" fill="rgb(0, 0, 0)" stroke="rgb(204, 204, 204)" stroke-width="1px"></line><line x1="31.59375" y1="164.35714285714286" x2="26.59375" y2="164.35714285714286" style="visibility: inherit;" fill="rgb(0, 0, 0)" stroke="rgb(204, 204, 204)" stroke-width="1px"></line><line x1="31.59375" y1="151.71428571428572" x2="26.59375" y2="151.71428571428572" style="visibility: inherit;" fill="rgb(0, 0, 0)" stroke="rgb(204, 204, 204)" stroke-width="1px"></line><line x1="31.59375" y1="139.07142857142856" x2="26.59375" y2="139.07142857142856" style="visibility: inherit;" fill="rgb(0, 0, 0)" stroke="rgb(204, 204, 204)" stroke-width="1px"></line><line x1="31.59375" y1="126.42857142857143" x2="26.59375" y2="126.42857142857143" style="visibility: inherit;" fill="rgb(0, 0, 0)" stroke="rgb(204, 204, 204)" stroke-width="1px"></line><line x1="31.59375" y1="113.78571428571428" x2="26.59375" y2="113.78571428571428" style="visibility: inherit;" fill="rgb(0, 0, 0)" stroke="rgb(204, 204, 204)" stroke-width="1px"></line><line x1="31.59375" y1="101.14285714285714" x2="26.59375" y2="101.14285714285714" style="visibility: inherit;" fill="rgb(0, 0, 0)" stroke="rgb(204, 204, 204)" stroke-width="1px"></line><line x1="31.59375" y1="88.5" x2="26.59375" y2="88.5" style="visibility: inherit;" fill="rgb(0, 0, 0)" stroke="rgb(204, 204, 204)" stroke-width="1px"></line><line x1="31.59375" y1="75.85714285714286" x2="26.59375" y2="75.85714285714286" style="visibility: inherit;" fill="rgb(0, 0, 0)" stroke="rgb(204, 204, 204)" stroke-width="1px"></line><line x1="31.59375" y1="63.21428571428571" x2="26.59375" y2="63.21428571428571" style="visibility: inherit;" fill="rgb(0, 0, 0)" stroke="rgb(204, 204, 204)" stroke-width="1px"></line><line x1="31.59375" y1="50.57142857142857" x2="26.59375" y2="50.57142857142857" style="visibility: inherit;" fill="rgb(0, 0, 0)" stroke="rgb(204, 204, 204)" stroke-width="1px"></line><line x1="31.59375" y1="37.92857142857143" x2="26.59375" y2="37.92857142857143" style="visibility: inherit;" fill="rgb(0, 0, 0)" stroke="rgb(204, 204, 204)" stroke-width="1px"></line><line x1="31.59375" y1="25.285714285714295" x2="26.59375" y2="25.285714285714295" style="visibility: inherit;" fill="rgb(0, 0, 0)" stroke="rgb(204, 204, 204)" stroke-width="1px"></line><line x1="31.59375" y1="12.642857142857137" x2="26.59375" y2="12.642857142857137" style="visibility: inherit;" fill="rgb(0, 0, 0)" stroke="rgb(204, 204, 204)" stroke-width="1px"></line><line x1="31.59375" y1="0" x2="26.59375" y2="0" style="visibility: inherit;" fill="rgb(0, 0, 0)" stroke="rgb(204, 204, 204)" stroke-width="1px"></line></g><g transform="translate(21.59375, 0)"><text x="0" y="177" dx="0em" dy="0.3em" style="text-anchor: end; visibility: hidden; font-family: Roboto, sans-serif; font-size: 12px; font-weight: 200;" fill="rgb(50, 49, 63)" stroke="none" stroke-width="1px">7</text><text x="0" y="164.35714285714286" dx="0em" dy="0.3em" style="text-anchor: end; visibility: inherit; font-family: Roboto, sans-serif; font-size: 12px; font-weight: 200;" fill="rgb(50, 49, 63)" stroke="none" stroke-width="1px">8</text><text x="0" y="151.71428571428572" dx="0em" dy="0.3em" style="text-anchor: end; visibility: hidden; font-family: Roboto, sans-serif; font-size: 12px; font-weight: 200;" fill="rgb(50, 49, 63)" stroke="none" stroke-width="1px">9</text><text x="0" y="139.07142857142856" dx="0em" dy="0.3em" style="text-anchor: end; visibility: inherit; font-family: Roboto, sans-serif; font-size: 12px; font-weight: 200;" fill="rgb(50, 49, 63)" stroke="none" stroke-width="1px">10</text><text x="0" y="126.42857142857143" dx="0em" dy="0.3em" style="text-anchor: end; visibility: hidden; font-family: Roboto, sans-serif; font-size: 12px; font-weight: 200;" fill="rgb(50, 49, 63)" stroke="none" stroke-width="1px">11</text><text x="0" y="113.78571428571428" dx="0em" dy="0.3em" style="text-anchor: end; visibility: inherit; font-family: Roboto, sans-serif; font-size: 12px; font-weight: 200;" fill="rgb(50, 49, 63)" stroke="none" stroke-width="1px">12</text><text x="0" y="101.14285714285714" dx="0em" dy="0.3em" style="text-anchor: end; visibility: hidden; font-family: Roboto, sans-serif; font-size: 12px; font-weight: 200;" fill="rgb(50, 49, 63)" stroke="none" stroke-width="1px">13</text><text x="0" y="88.5" dx="0em" dy="0.3em" style="text-anchor: end; visibility: inherit; font-family: Roboto, sans-serif; font-size: 12px; font-weight: 200;" fill="rgb(50, 49, 63)" stroke="none" stroke-width="1px">14</text><text x="0" y="75.85714285714286" dx="0em" dy="0.3em" style="text-anchor: end; visibility: hidden; font-family: Roboto, sans-serif; font-size: 12px; font-weight: 200;" fill="rgb(50, 49, 63)" stroke="none" stroke-width="1px">15</text><text x="0" y="63.21428571428571" dx="0em" dy="0.3em" style="text-anchor: end; visibility: inherit; font-family: Roboto, sans-serif; font-size: 12px; font-weight: 200;" fill="rgb(50, 49, 63)" stroke="none" stroke-width="1px">16</text><text x="0" y="50.57142857142857" dx="0em" dy="0.3em" style="text-anchor: end; visibility: hidden; font-family: Roboto, sans-serif; font-size: 12px; font-weight: 200;" fill="rgb(50, 49, 63)" stroke="none" stroke-width="1px">17</text><text x="0" y="37.92857142857143" dx="0em" dy="0.3em" style="text-anchor: end; visibility: inherit; font-family: Roboto, sans-serif; font-size: 12px; font-weight: 200;" fill="rgb(50, 49, 63)" stroke="none" stroke-width="1px">18</text><text x="0" y="25.285714285714295" dx="0em" dy="0.3em" style="text-anchor: end; visibility: hidden; font-family: Roboto, sans-serif; font-size: 12px; font-weight: 200;" fill="rgb(50, 49, 63)" stroke="none" stroke-width="1px">19</text><text x="0" y="12.642857142857137" dx="0em" dy="0.3em" style="text-anchor: end; visibility: inherit; font-family: Roboto, sans-serif; font-size: 12px; font-weight: 200;" fill="rgb(50, 49, 63)" stroke="none" stroke-width="1px">20</text><text x="0" y="0" dx="0em" dy="0.3em" style="text-anchor: end; visibility: hidden; font-family: Roboto, sans-serif; font-size: 12px; font-weight: 200;" fill="rgb(50, 49, 63)" stroke="none" stroke-width="1px">21</text></g><line x1="31.59375" y1="0" x2="31.59375" y2="177" fill="rgb(0, 0, 0)" stroke="rgb(204, 204, 204)" stroke-width="1px"></line></g></g><g transform="translate(31, 0)" clip-path="url(#clip_0)"><clipPath id="clip_0"><rect width="298" height="177"></rect></clipPath><g><g><g><line x1="0" y1="0" x2="0" y2="177" fill="rgb(0, 0, 0)" stroke="rgb(60, 60, 60)" stroke-width="1px" opacity="0.25"></line><line x1="37.30078125" y1="0" x2="37.30078125" y2="177" fill="rgb(0, 0, 0)" stroke="rgb(60, 60, 60)" stroke-width="1px" opacity="0.25"></line><line x1="74.6015625" y1="0" x2="74.6015625" y2="177" fill="rgb(0, 0, 0)" stroke="rgb(60, 60, 60)" stroke-width="1px" opacity="0.25"></line><line x1="111.90234375" y1="0" x2="111.90234375" y2="177" fill="rgb(0, 0, 0)" stroke="rgb(60, 60, 60)" stroke-width="1px" opacity="0.25"></line><line x1="149.203125" y1="0" x2="149.203125" y2="177" fill="rgb(0, 0, 0)" stroke="rgb(60, 60, 60)" stroke-width="1px" opacity="0.25"></line><line x1="186.50390625" y1="0" x2="186.50390625" y2="177" fill="rgb(0, 0, 0)" stroke="rgb(60, 60, 60)" stroke-width="1px" opacity="0.25"></line><line x1="223.8046875" y1="0" x2="223.8046875" y2="177" fill="rgb(0, 0, 0)" stroke="rgb(60, 60, 60)" stroke-width="1px" opacity="0.25"></line><line x1="261.10546875" y1="0" x2="261.10546875" y2="177" fill="rgb(0, 0, 0)" stroke="rgb(60, 60, 60)" stroke-width="1px" opacity="0.25"></line><line x1="298.40625" y1="0" x2="298.40625" y2="177" fill="rgb(0, 0, 0)" stroke="rgb(60, 60, 60)" stroke-width="1px" opacity="0.25"></line></g><g><line x1="0" y1="177" x2="298.40625" y2="177" fill="rgb(0, 0, 0)" stroke="rgb(60, 60, 60)" stroke-width="1px" opacity="0.25"></line><line x1="0" y1="164.35714285714286" x2="298.40625" y2="164.35714285714286" fill="rgb(0, 0, 0)" stroke="rgb(60, 60, 60)" stroke-width="1px" opacity="0.25"></line><line x1="0" y1="151.71428571428572" x2="298.40625" y2="151.71428571428572" fill="rgb(0, 0, 0)" stroke="rgb(60, 60, 60)" stroke-width="1px" opacity="0.25"></line><line x1="0" y1="139.07142857142856" x2="298.40625" y2="139.07142857142856" fill="rgb(0, 0, 0)" stroke="rgb(60, 60, 60)" stroke-width="1px" opacity="0.25"></line><line x1="0" y1="126.42857142857143" x2="298.40625" y2="126.42857142857143" fill="rgb(0, 0, 0)" stroke="rgb(60, 60, 60)" stroke-width="1px" opacity="0.25"></line><line x1="0" y1="113.78571428571428" x2="298.40625" y2="113.78571428571428" fill="rgb(0, 0, 0)" stroke="rgb(60, 60, 60)" stroke-width="1px" opacity="0.25"></line><line x1="0" y1="101.14285714285714" x2="298.40625" y2="101.14285714285714" fill="rgb(0, 0, 0)" stroke="rgb(60, 60, 60)" stroke-width="1px" opacity="0.25"></line><line x1="0" y1="88.5" x2="298.40625" y2="88.5" fill="rgb(0, 0, 0)" stroke="rgb(60, 60, 60)" stroke-width="1px" opacity="0.25"></line><line x1="0" y1="75.85714285714286" x2="298.40625" y2="75.85714285714286" fill="rgb(0, 0, 0)" stroke="rgb(60, 60, 60)" stroke-width="1px" opacity="0.25"></line><line x1="0" y1="63.21428571428571" x2="298.40625" y2="63.21428571428571" fill="rgb(0, 0, 0)" stroke="rgb(60, 60, 60)" stroke-width="1px" opacity="0.25"></line><line x1="0" y1="50.57142857142857" x2="298.40625" y2="50.57142857142857" fill="rgb(0, 0, 0)" stroke="rgb(60, 60, 60)" stroke-width="1px" opacity="0.25"></line><line x1="0" y1="37.92857142857143" x2="298.40625" y2="37.92857142857143" fill="rgb(0, 0, 0)" stroke="rgb(60, 60, 60)" stroke-width="1px" opacity="0.25"></line><line x1="0" y1="25.285714285714295" x2="298.40625" y2="25.285714285714295" fill="rgb(0, 0, 0)" stroke="rgb(60, 60, 60)" stroke-width="1px" opacity="0.25"></line><line x1="0" y1="12.642857142857137" x2="298.40625" y2="12.642857142857137" fill="rgb(0, 0, 0)" stroke="rgb(60, 60, 60)" stroke-width="1px" opacity="0.25"></line><line x1="0" y1="0" x2="298.40625" y2="0" fill="rgb(0, 0, 0)" stroke="rgb(60, 60, 60)" stroke-width="1px" opacity="0.25"></line></g></g></g><g><g><line x1="0" y1="265.5" x2="298.40625" y2="265.5" fill="rgb(0, 0, 0)" stroke="rgb(153, 153, 153)" stroke-width="1.5px"></line></g></g><g><g><line x1="37.30078125" y1="0" x2="37.30078125" y2="177" fill="rgb(0, 0, 0)" stroke="rgb(153, 153, 153)" stroke-width="1.5px"></line></g></g><g><g><g><g><g><path stroke="rgb(0, 153, 136)" stroke-width="2px" d="M48.491015625,-1.4623484956905115L49.23703125,5.131350177441979L49.983046875,7.963012800995342L50.729062500000005,14.464083891254415L51.475078124999996,19.359235388348857L52.221093749999994,23.71857401701313L52.967109375,27.53739862538248L53.713125,29.984248147613172L54.459140624999996,33.223879843251915L55.20515625,34.65932702786239L55.951171875,38.41392254150253L56.6971875,41.374576931253685L57.443203125000004,43.261228084720074L58.18921875,46.70546542788462L58.935234375,49.66985148015955L59.681250000000006,51.401170358032054L60.427265625000004,58.19567788374494L61.173281249999995,63.37544419050775L61.919296875,66.70080066719724L62.6653125,69.76223471232852L63.411328125,72.12327808472114L64.15734375,73.6808089832308L64.903359375,75.70352070519718L65.649375,76.98076617570233L66.395390625,78.20413800382711L67.14140625,78.74885391392179L67.887421875,80.08215315949796L68.6334375,79.11199091362455L69.379453125,80.81586030360562L70.12546875,81.92192620446897L70.871484375,83.39461137310282L71.61749999999999,84.23697731343876L72.363515625,84.23092698210955L73.10953125,85.50582924749303L73.855546875,86.9055515722498L74.6015625,88.4631144265902L75.347578125,88.13410432359059L76.09359375,87.77691184669104L76.839609375,89.1116530949109L77.58562500000001,90.99515437722012L78.331640625,91.33718899103467L79.07765625,92.13428167486829L79.823671875,92.63026614520601L80.5696875,93.88861056799179L81.315703125,93.82074443309769L82.06171875000001,94.69228938533995L82.80773437500001,95.58503381797158L83.55375000000001,99.919561381612L84.29976562499999,102.39014731546101L85.04578124999999,104.25901310350129L85.79179687499999,105.83386536746313L86.5378125,106.95779191269506L87.283828125,107.15480455304744L88.02984375,108.01110856517634L88.775859375,108.73101549616145L89.521875,109.10367697042635L90.26789062499999,109.83461537611217L91.01390625,110.17064426163445L91.759921875,110.70676602017649L92.5059375,111.05860128712855L93.251953125,111.60140961151926L93.99796875,111.59525722451829L94.743984375,111.29257213670422L95.49,111.39167124985701L96.23601562500001,112.04195124823136L96.98203125,113.17531826873163L97.728046875,112.5346830942433L98.4740625,113.09368858514007L99.220078125,113.79300132857428L99.96609375,114.3291383847736L100.71210937500001,114.7762826873234L101.45812500000001,115.5670642389025L102.20414062500001,115.6164263583265L102.95015624999999,115.54048071145411L103.69617187499999,115.83953612606507L104.44218749999999,116.12642285732326L105.188203125,116.33887888921609L105.93421875,119.2862347649959L106.680234375,121.03012401046061L107.42625,122.20896583563255L108.172265625,123.28181533163205L108.91828124999999,123.80310618964087L109.664296875,124.21603236591028L110.4103125,124.74227971857484L111.156328125,125.10818112678176L111.90234375,125.3368757737602L112.648359375,125.9447561775827L113.394375,126.23123339862725L114.140390625,126.18010552641128L114.88640625000001,126.45827075363454L115.632421875,126.8397151399074L116.3784375,127.02552803566563L117.124453125,127.13670228674883L117.87046875,127.39694367756513L118.616484375,127.65257944070478L119.36250000000001,127.76367882134426L120.10851562500001,128.07648312593648L120.85453125000001,128.1263426310812L121.60054687499999,128.23312519251417L122.34656249999999,128.7104758703826L123.09257812499999,128.86323015680333L123.83859375,129.07271019861778L124.584609375,129.1365738883357L125.330625,129.33429268788598L126.076640625,129.47939186312396L126.82265625,129.4783279377422L127.56867187499999,129.40652335326507L128.3146875,129.719382674766L129.060703125,131.74246451675103L129.80671875,133.0219239081097L130.552734375,133.97828457863048L131.29875,134.6809101196497L132.044765625,135.2872736032229L132.79078125,135.6724232352457L133.536796875,135.84491517728372L134.2828125,136.064728255017L135.028828125,136.17179280388387L135.77484375,136.22199216661815L136.52085937500001,136.456408441276L137.266875,136.52605113144216L138.012890625,136.75960841629205L138.75890625,136.64508092741718L139.504921875,136.6502170004026L140.2509375,136.9242232123701L140.996953125,137.06815869091085L141.74296875,137.52035375096705L142.488984375,137.42643987247615L143.23499999999999,137.56195002774248L143.981015625,137.67659660225164L144.72703125,137.7968590091938L145.473046875,137.91765989251581L146.2190625,137.9819608396407L146.965078125,138.28948377764914L147.71109375,138.39448775085114L148.457109375,138.53817188111896L149.203125,138.54554777109252L149.94914062499998,138.66983602502125L150.69515625,138.78154987812658L151.44117187499998,140.0924101242375L152.1871875,141.11705534273096L152.93320312499998,141.7077618976116L153.67921875,142.14160880853242L154.425234375,142.24604188533044L155.17125000000001,142.52938166849947L155.917265625,142.77297766987937L156.66328125,143.01212497429438L157.409296875,143.1368379347109L158.1553125,143.15611110302447L158.901328125,143.2714148787162L159.64734375,143.39594436877547L160.393359375,143.58339658494936L161.139375,143.61672466296218L161.88539062499999,143.64629972414275L162.63140625,143.81450375067567L163.377421875,143.90129998839893L164.12343750000002,144.0855580539524L164.869453125,144.09603357482928L165.61546875000002,144.22843686613257L166.361484375,144.25662140770442L167.10750000000002,144.34097993124027L167.853515625,144.48902660969281L168.59953124999998,144.46673093228995L169.345546875,144.61946271992258L170.09156249999998,144.70001884354502L170.837578125,144.7919078319187L171.58359374999998,144.84599948561538L172.329609375,145.075483073894L173.075625,145.18121208554734L173.82164062500001,145.25611827087707L174.56765625,146.24418331996557L175.313671875,146.72187157078446L176.0596875,147.15477173092282L176.805703125,147.5758704968318L177.55171875,147.80710175715322L178.297734375,147.90872372693423L179.04375,148.0610709518588L179.789765625,148.18214956618016L180.53578124999999,148.27130540939456L181.281796875,148.29761241259405L182.0278125,148.4323429896794L182.77382812500002,148.44776396445323L183.51984375,148.60088750246868L184.26585937500002,148.69820181954415L185.011875,148.77965818388083L185.75789062500002,148.85755119476977L186.50390625,148.85582683110223L187.24992187499998,148.94333041001042L187.9959375,149.0136241146673L188.74195312499998,149.12276584932843L189.48796875,149.2308416308739L190.23398437499998,149.28453180783515L190.98,149.27523067266148L191.726015625,149.41196315858434L192.47203125000001,149.51321213042368L193.218046875,149.44562501581177L193.9640625,149.50846055243838L194.710078125,149.59165115838476L195.45609375,149.6411025266959L196.202109375,149.75492273558714L196.948125,150.4606339348442L197.694140625,150.97963059196817L198.44015625,151.3097895398733L199.18617187499999,151.53160859265478L199.9321875,151.72381390829585L200.678203125,151.84658842759296L201.42421875000002,151.94109274858982L202.170234375,152.01550008688932L202.91625000000002,152.1250217002136L203.662265625,152.13504019712138L204.40828125000002,152.15430935735625L205.154296875,152.1927535155891L205.90031249999998,152.26295871510123L206.646328125,152.3195793737838L207.39234374999998,152.29665158109225L208.138359375,152.3647871915055L208.88437499999998,152.41132578104623L209.630390625,152.45995350390606L210.37640625,152.49750263518055L211.12242187500001,152.63539027587152L211.8684375,152.66254896088074L212.614453125,152.6905974993922L213.36046875,152.66192769279417L214.106484375,152.77861342676397L214.8525,152.8011196246619L215.598515625,152.8152503161441L216.34453125,152.90129008226458L217.090546875,152.94393376310387L217.83656249999999,153.05858868411443L218.582578125,153.06830633568663L219.32859375,153.09876730971277L220.07460937500002,153.64386497610738L220.820625,153.96643348652762L221.56664062500002,154.19791608949262L222.31265625,154.28196482768936L223.05867187500002,154.45486596173814L223.8046875,154.52711331897754L224.55070312499998,154.594474789395L225.29671875,154.68330361317385L226.04273437499998,154.80141542051138L226.78875,154.76692214681194L227.53476562499998,154.83198640816073L228.28078125,154.89646558975204L229.026796875,154.9184129264569L229.77281250000001,154.9441063147469L230.518828125,154.98476523494537L231.26484375,155.0164334708884L232.010859375,155.08481575030123L232.756875,155.14631818945597L233.502890625,155.16495063177837L234.24890625,155.2191259587702L234.994921875,155.2893411540498L235.7409375,155.28528167149483L236.48695312499999,155.37150475075194L237.23296875,155.4093535634726L237.978984375,155.42397490271455L238.72500000000002,155.4669032521756L239.471015625,155.46075699494548L240.21703125000002,155.58385277506613L240.963046875,155.54569915108877L241.70906250000002,155.64257323930178L242.455078125,155.58864801724178L243.20109374999998,155.92926932334555L243.947109375,156.1389713753271L244.69312499999998,156.36137534620977L245.439140625,156.4731678776216L246.18515624999998,156.58043234932336L246.931171875,156.63582049924594L247.6771875,156.60679017290832L248.42320312500001,156.69835913138522L249.16921875,156.7319014444509L249.915234375,156.8012972441904L250.66125,156.84203767072427L251.407265625,156.93958694853006L252.15328125,156.90407060369705L252.899296875,156.89818432628596L253.6453125,156.93169700324228L254.391328125,156.9306322221567L255.13734374999999,157.01770201744583L255.883359375,157.07358033653125L256.629375,157.11233531608937L257.375390625,157.0653239507533L258.12140625,157.12240471612895L258.867421875,157.09924658639125L259.6134375,157.13560598536918L260.359453125,157.09807142028822L261.10546875,157.1753020447214L261.851484375,157.18362175679238L262.5975,157.21859734977335L263.343515625,157.24000229501328L264.08953125,157.34354892666443L264.835546875,157.36484168858794L265.5815625,157.61386549833867L266.327578125,157.78019840252756L267.07359375,157.90541947835388L267.81960937499997,157.99416707811687L268.565625,158.0273959159898L269.311640625,158.05969905036116L270.05765625,158.109170799802L270.803671875,158.10712420578105L271.5496875,158.13132240554867L272.295703125,158.17051993716467L273.04171875000003,158.17783362214988L273.787734375,158.26689691357663L274.53375,158.2518019447071L275.279765625,158.25131037563423L276.02578125,158.29442123950582L276.771796875,158.28166623683268L277.5178125,158.31051269463168L278.263828125,158.34820682920753L279.00984375,158.37189880935136L279.755859375,158.37555674101156L280.501875,158.40948114369317L281.247890625,158.45181359139343L281.99390625,158.50250417591062L282.739921875,158.45524142657558L283.4859375,158.47671364147655L284.231953125,158.48904716354977L284.97796875,158.5327586443736L285.723984375,158.49327396648778L286.46999999999997,158.5908830941435L287.216015625,158.57597218807265L287.96203125,158.57829186234312L288.708046875,158.78597216809993" style="fill: none;" fill="none"></path></g></g></g></g><g opacity="0.2"><g><g><g><path stroke="rgb(0, 153, 136)" stroke-width="2px" d="M46.998984375,-2.2522548948015544L47.745,5.489845684596476L48.491015625,6.681190354483459L49.23703125,15.019107954842712L49.983046875,12.209787777491984L50.729062500000005,24.21470015389579L51.475078124999996,26.701515197753906L52.221093749999994,30.25734288351876L52.967109375,33.26550987788609L53.713125,33.65447412218366L54.459140624999996,38.083289010184146L55.20515625,36.81248760223389L55.951171875,44.04579980032784L56.6971875,45.81555094037738L57.443203125000004,46.09120191846576L58.18921875,51.871818270002095L58.935234375,54.11642892020089L59.681250000000006,53.99814810071673L60.427265625000004,68.38743782043457L61.173281249999995,71.14509303229195L61.919296875,71.68883514404297L62.6653125,74.35438564845494L63.411328125,75.66484308242798L64.15734375,76.01710530689785L64.903359375,78.73758826936994L65.649375,78.89663437434605L66.395390625,80.03919574192592L67.14140625,79.56592777797154L67.887421875,82.0821020262582L68.6334375,77.65674754551479L69.379453125,83.37166438783917L70.12546875,83.5810250554766L70.871484375,85.60363912582397L71.61749999999999,85.50052622386387L72.363515625,84.22185148511615L73.10953125,87.41818264552525L73.855546875,89.00513505935669L74.6015625,90.79945870808193L75.347578125,87.64058916909354L76.09359375,87.2411231313433L76.839609375,91.1137649672372L77.58562500000001,93.82040630068099L78.331640625,91.85024091175625L79.07765625,93.3299207006182L79.823671875,93.37424285071236L80.5696875,95.77612720217024L81.315703125,93.71894523075649L82.06171875000001,95.99960681370327L82.80773437500001,96.92415046691895L83.55375000000001,106.42135272707259L84.29976562499999,106.09602621623448L85.04578124999999,107.06231178556169L85.79179687499999,108.19614376340593L86.5378125,108.64368173054287L87.283828125,107.45032351357597L88.02984375,109.29556458336967L88.775859375,109.81087589263916L89.521875,109.66266918182373L90.26789062499999,110.93102298464095L91.01390625,110.67468758991787L91.759921875,111.5109486579895L92.5059375,111.58635418755668L93.251953125,112.4156220981053L93.99796875,111.5860286440168L94.743984375,110.83854450498308L95.49,111.54031991958618L96.23601562500001,113.01737124579293L96.98203125,114.87536879948208L97.728046875,111.57373033251082L98.4740625,113.93219682148525L99.220078125,114.84197044372559L99.96609375,115.13334396907261L100.71210937500001,115.44699914114815L101.45812500000001,116.7532365662711L102.20414062500001,115.6904695374625L102.95015624999999,115.42656224114555L103.69617187499999,116.28811924798148L104.44218749999999,116.55675295421055L105.188203125,116.65756293705532L105.93421875,123.7072685786656L106.680234375,123.64595787865775L107.42625,123.97722857339042L108.172265625,124.89108957563127L108.91828124999999,124.58504247665405L109.664296875,124.83542163031441L110.4103125,125.53165074757167L111.156328125,125.65703323909214L111.90234375,125.67991774422782L112.648359375,126.85657678331648L113.394375,126.66094923019409L114.140390625,126.10341371808732L114.88640625000001,126.87551859446934L115.632421875,127.41188171931675L116.3784375,127.30424737930298L117.124453125,127.30346366337368L117.87046875,127.78730576378959L118.616484375,128.03603308541435L119.36250000000001,127.93032789230347L120.10851562500001,128.5456895828247L120.85453125000001,128.2011318887983L121.60054687499999,128.3932990346636L122.34656249999999,129.42650188718522L123.09257812499999,129.0923615864345L123.83859375,129.38693026133944L124.584609375,129.2323694229126L125.330625,129.6308708872114L126.076640625,129.69704062598092L126.82265625,129.47673204966952L127.56867187499999,129.2988164765494L128.3146875,130.1886716570173L129.060703125,134.77708727972848L129.80671875,134.9411129951477L130.552734375,135.41282558441162L131.29875,135.7348484311785L132.044765625,136.19681882858276L132.79078125,136.25014768327986L133.536796875,136.10365309034074L134.2828125,136.3944478716169L135.028828125,136.33238962718417L135.77484375,136.29729121071952L136.52085937500001,136.80803285326277L137.266875,136.63051516669137L138.012890625,137.1099443435669L138.75890625,136.4732896941049L139.504921875,136.6579211098807L140.2509375,137.33523253032138L140.996953125,137.28406190872192L141.74296875,138.19864634105136L142.488984375,137.28556905473982L143.23499999999999,137.76521526064192L143.981015625,137.84856646401542L144.72703125,137.9772526196071L145.473046875,138.09886121749878L146.2190625,138.07841226032804L146.965078125,138.75076818466187L147.71109375,138.55199371065413L148.457109375,138.75369807652066L149.203125,138.55661160605294L149.94914062499998,138.8562684059143L150.69515625,138.9491206577846L151.44117187499998,142.05870049340385L152.1871875,142.6540231704712L152.93320312499998,142.59382172993253L153.67921875,142.79237917491366L154.425234375,142.4026915005275L155.17125000000001,142.954391343253L155.917265625,143.13837167194913L156.66328125,143.37084593091691L157.409296875,143.3239073753357L158.1553125,143.1850208554949L158.901328125,143.44437054225375L159.64734375,143.5827386038644L160.393359375,143.8645749092102L161.139375,143.66671677998136L161.88539062499999,143.6906623159136L162.63140625,144.06680979047502L163.377421875,144.0314943449838L164.12343750000002,144.36194515228271L164.869453125,144.1117468561445L165.61546875000002,144.4270418030875L166.361484375,144.29889822006226L167.10750000000002,144.46751771654402L167.853515625,144.71109662737166L168.59953124999998,144.43328741618564L169.345546875,144.84856040137154L170.09156249999998,144.8208530289786L170.837578125,144.9297413144793L171.58359374999998,144.92713696616036L172.329609375,145.41970845631192L173.075625,145.33980560302734L173.82164062500001,145.36847754887174L174.56765625,147.7262808935983L175.313671875,147.43840394701277L176.0596875,147.80412197113037L176.805703125,148.20751864569527L177.55171875,148.15394864763533L178.297734375,148.06115668160575L179.04375,148.2895917892456L179.789765625,148.3637674876622L180.53578124999999,148.40503917421614L181.281796875,148.33707291739327L182.0278125,148.63443885530745L182.77382812500002,148.47089542661394L183.51984375,148.83057280949185L184.26585937500002,148.8441732951573L185.011875,148.9018427303859L185.75789062500002,148.97439071110318L186.50390625,148.85324028560092L187.24992187499998,149.07458577837264L187.9959375,149.11906467165267L188.74195312499998,149.2864784513201L189.48796875,149.39295530319214L190.23398437499998,149.36506707327706L190.98,149.26127896990096L191.726015625,149.6170618874686L192.47203125000001,149.6650855881827L193.218046875,149.34424434389388L193.9640625,149.60271385737826L194.710078125,149.71643706730435L195.45609375,149.7152795791626L196.202109375,149.92565304892403L196.948125,151.51920073372978L197.694140625,151.75812557765414L198.44015625,151.80502796173096L199.18617187499999,151.86433717182706L199.9321875,152.01212188175748L200.678203125,152.0307502065386L201.42421875000002,152.08284923008512L202.170234375,152.12711109433855L202.91625000000002,152.28930412020003L203.662265625,152.15006794248308L204.40828125000002,152.18321309770857L205.154296875,152.2504197529384L205.90031249999998,152.36826651436942L206.646328125,152.4045103618077L207.39234374999998,152.26225989205497L208.138359375,152.4669906071254L208.88437499999998,152.48113366535733L209.630390625,152.5328950881958L210.37640625,152.55382633209229L211.12242187500001,152.84222173690796L211.8684375,152.7032869883946L212.614453125,152.73267030715942L213.36046875,152.61892298289706L214.106484375,152.95364202771867L214.8525,152.8348789215088L215.598515625,152.8364463533674L216.34453125,153.0303497314453L217.090546875,153.0078992843628L217.83656249999999,153.23057106563022L218.582578125,153.08288281304496L219.32859375,153.14445877075195L220.07460937500002,154.4615114756993L220.820625,154.45028625215804L221.56664062500002,154.5451399939401L222.31265625,154.40803793498446L223.05867187500002,154.71421766281128L223.8046875,154.6354843548366L224.55070312499998,154.69551699502128L225.29671875,154.81654684884208L226.04273437499998,154.97858313151767L226.78875,154.71518223626273L227.53476562499998,154.929582800184L228.28078125,154.993184362139L229.026796875,154.9513339315142L229.77281250000001,154.98264639718192L230.518828125,155.04575361524311L231.26484375,155.06393582480294L232.010859375,155.1873891694205L232.756875,155.23857184818814L233.502890625,155.19289929526192L234.24890625,155.300388949258L234.994921875,155.3946639469692L235.7409375,155.27919244766235L236.48695312499999,155.50083936963765L237.23296875,155.46612678255352L237.978984375,155.44590691157748L238.72500000000002,155.5312957763672L239.471015625,155.45153760910034L240.21703125000002,155.7684964452471L240.963046875,155.48846871512276L241.70906250000002,155.7878843716213L242.455078125,155.5077601841518L243.20109374999998,156.44020128250122L243.947109375,156.45352445329937L244.69312499999998,156.69498130253385L245.439140625,156.6408566747393L246.18515624999998,156.74132905687603L246.931171875,156.71890272412983L247.6771875,156.5632446834019L248.42320312500001,156.83571256910054L249.16921875,156.7822149140494L249.915234375,156.90539094379972L250.66125,156.9031483105251L251.407265625,157.08591086523873L252.15328125,156.85079608644756L252.899296875,156.88935491016935L253.6453125,156.98196601867676L254.391328125,156.92903505052837L255.13734374999999,157.14830671037944L255.883359375,157.15739781515938L256.629375,157.17046778542655L257.375390625,156.99480690274922L258.12140625,157.20802586419242L258.867421875,157.06450939178467L259.6134375,157.19014508383614L260.359453125,157.0417695726667L261.10546875,157.29114798137118L261.851484375,157.19610132489888L262.5975,157.27106073924472L263.343515625,157.2721097128732L264.08953125,157.49886887414115L264.835546875,157.3967808314732L265.5815625,157.98740121296476L266.327578125,158.02969775881084L267.07359375,158.0932510920933L267.81960937499997,158.12728847776143L268.565625,158.07723917279927L269.311640625,158.10815375191825L270.05765625,158.1833784239633L270.803671875,158.10405431474956L271.5496875,158.1676197052002L272.295703125,158.22931623458862L273.04171875000003,158.18880414962769L273.787734375,158.40049185071675L274.53375,158.22915949140278L275.279765625,158.25057302202495L276.02578125,158.3590875353132L276.771796875,158.26253373282296L277.5178125,158.35378238133023L278.263828125,158.40474803107125L279.00984375,158.40743677956718L279.755859375,158.38104363850186L280.501875,158.46036774771554L281.247890625,158.5153122629438L281.99390625,158.57854005268644L282.739921875,158.38434730257305L283.4859375,158.50892196382793L284.231953125,158.50754744665963L284.97796875,158.59832586560933L285.723984375,158.4340469496591L286.46999999999997,158.7372967856271L287.216015625,158.5536058289664L287.96203125,158.58177137374878L288.708046875,159.09749262673515" style="fill: none;" fill="none"></path></g></g></g></g></g></g><g transform="translate(31, 177)" clip-path="url(#clip_1)"><clipPath id="clip_1"><rect width="298" height="23"></rect></clipPath><g><g><line x1="0" y1="0" x2="0" y2="5" style="visibility: inherit;" fill="rgb(0, 0, 0)" stroke="rgb(204, 204, 204)" stroke-width="1px"></line><line x1="37.30078125" y1="0" x2="37.30078125" y2="5" style="visibility: inherit;" fill="rgb(0, 0, 0)" stroke="rgb(204, 204, 204)" stroke-width="1px"></line><line x1="74.6015625" y1="0" x2="74.6015625" y2="5" style="visibility: inherit;" fill="rgb(0, 0, 0)" stroke="rgb(204, 204, 204)" stroke-width="1px"></line><line x1="111.90234375" y1="0" x2="111.90234375" y2="5" style="visibility: inherit;" fill="rgb(0, 0, 0)" stroke="rgb(204, 204, 204)" stroke-width="1px"></line><line x1="149.203125" y1="0" x2="149.203125" y2="5" style="visibility: inherit;" fill="rgb(0, 0, 0)" stroke="rgb(204, 204, 204)" stroke-width="1px"></line><line x1="186.50390625" y1="0" x2="186.50390625" y2="5" style="visibility: inherit;" fill="rgb(0, 0, 0)" stroke="rgb(204, 204, 204)" stroke-width="1px"></line><line x1="223.8046875" y1="0" x2="223.8046875" y2="5" style="visibility: inherit;" fill="rgb(0, 0, 0)" stroke="rgb(204, 204, 204)" stroke-width="1px"></line><line x1="261.10546875" y1="0" x2="261.10546875" y2="5" style="visibility: inherit;" fill="rgb(0, 0, 0)" stroke="rgb(204, 204, 204)" stroke-width="1px"></line><line x1="298.40625" y1="0" x2="298.40625" y2="5" style="visibility: inherit;" fill="rgb(0, 0, 0)" stroke="rgb(204, 204, 204)" stroke-width="1px"></line></g><g transform="translate(0, 8)"><text x="0" y="0" dx="0em" dy="0.95em" style="text-anchor: middle; visibility: hidden; font-family: Roboto, sans-serif; font-size: 12px; font-weight: 200;" fill="rgb(50, 49, 63)" stroke="none" stroke-width="1px">-50</text><text x="37.30078125" y="0" dx="0em" dy="0.95em" style="text-anchor: middle; visibility: inherit; font-family: Roboto, sans-serif; font-size: 12px; font-weight: 200;" fill="rgb(50, 49, 63)" stroke="none" stroke-width="1px">0</text><text x="74.6015625" y="0" dx="0em" dy="0.95em" style="text-anchor: middle; visibility: inherit; font-family: Roboto, sans-serif; font-size: 12px; font-weight: 200;" fill="rgb(50, 49, 63)" stroke="none" stroke-width="1px">50</text><text x="111.90234375" y="0" dx="0em" dy="0.95em" style="text-anchor: middle; visibility: inherit; font-family: Roboto, sans-serif; font-size: 12px; font-weight: 200;" fill="rgb(50, 49, 63)" stroke="none" stroke-width="1px">100</text><text x="149.203125" y="0" dx="0em" dy="0.95em" style="text-anchor: middle; visibility: inherit; font-family: Roboto, sans-serif; font-size: 12px; font-weight: 200;" fill="rgb(50, 49, 63)" stroke="none" stroke-width="1px">150</text><text x="186.50390625" y="0" dx="0em" dy="0.95em" style="text-anchor: middle; visibility: inherit; font-family: Roboto, sans-serif; font-size: 12px; font-weight: 200;" fill="rgb(50, 49, 63)" stroke="none" stroke-width="1px">200</text><text x="223.8046875" y="0" dx="0em" dy="0.95em" style="text-anchor: middle; visibility: inherit; font-family: Roboto, sans-serif; font-size: 12px; font-weight: 200;" fill="rgb(50, 49, 63)" stroke="none" stroke-width="1px">250</text><text x="261.10546875" y="0" dx="0em" dy="0.95em" style="text-anchor: middle; visibility: inherit; font-family: Roboto, sans-serif; font-size: 12px; font-weight: 200;" fill="rgb(50, 49, 63)" stroke="none" stroke-width="1px">300</text><text x="298.40625" y="0" dx="0em" dy="0.95em" style="text-anchor: middle; visibility: hidden; font-family: Roboto, sans-serif; font-size: 12px; font-weight: 200;" fill="rgb(50, 49, 63)" stroke="none" stroke-width="1px">350</text></g><line x1="0" y1="0" x2="298.40625" y2="0" fill="rgb(0, 0, 0)" stroke="rgb(204, 204, 204)" stroke-width="1px"></line></g></g></g></g></svg>